  0
SECTION
  2
BLOCKS
  0
ENDSEC
  0
SECTION
  2
ENTITIES
  0
LINE
  8
0
 10
34.8688
 20
9.79999
 11
34.8856
 21
10.0671
  0
LINE
  8
0
 10
34.8856
 20
10.0671
 11
34.9357
 21
10.33
  0
LINE
  8
0
 10
34.9357
 20
10.33
 11
35.0184
 21
10.5845
  0
LINE
  8
0
 10
35.0184
 20
10.5845
 11
35.1324
 21
10.8267
  0
LINE
  8
0
 10
35.1324
 20
10.8267
 11
35.2758
 21
11.0527
  0
LINE
  8
0
 10
35.2758
 20
11.0527
 11
35.4464
 21
11.2589
  0
LINE
  8
0
 10
35.4464
 20
11.2589
 11
35.6415
 21
11.4421
  0
LINE
  8
0
 10
35.6415
 20
11.4421
 11
35.858
 21
11.5994
  0
LINE
  8
0
 10
35.858
 20
11.5994
 11
36.0926
 21
11.7284
  0
LINE
  8
0
 10
36.0926
 20
11.7284
 11
36.3414
 21
11.8269
  0
LINE
  8
0
 10
36.3414
 20
11.8269
 11
36.6006
 21
11.8934
  0
LINE
  8
0
 10
36.6006
 20
11.8934
 11
36.8662
 21
11.927
  0
LINE
  8
0
 10
36.8662
 20
11.927
 11
38.073
 21
11.927
  0
LINE
  8
0
 10
38.073
 20
11.927
 11
38.073
 21
13.1338
  0
LINE
  8
0
 10
38.073
 20
13.1338
 11
38.1065
 21
13.3993
  0
LINE
  8
0
 10
38.1065
 20
13.3993
 11
38.1731
 21
13.6586
  0
LINE
  8
0
 10
38.1731
 20
13.6586
 11
38.2716
 21
13.9074
  0
LINE
  8
0
 10
38.2716
 20
13.9074
 11
38.4006
 21
14.142
  0
LINE
  8
0
 10
38.4006
 20
14.142
 11
38.5579
 21
14.3585
  0
LINE
  8
0
 10
38.5579
 20
14.3585
 11
38.7411
 21
14.5536
  0
LINE
  8
0
 10
38.7411
 20
14.5536
 11
38.9473
 21
14.7242
  0
LINE
  8
0
 10
38.9473
 20
14.7242
 11
39.1733
 21
14.8676
  0
LINE
  8
0
 10
39.1733
 20
14.8676
 11
39.4155
 21
14.9815
  0
LINE
  8
0
 10
39.4155
 20
14.9815
 11
39.67
 21
15.0642
  0
LINE
  8
0
 10
39.67
 20
15.0642
 11
39.9329
 21
15.1144
  0
LINE
  8
0
 10
39.9329
 20
15.1144
 11
40.2
 21
15.1312
  0
LINE
  8
0
 10
40.2
 20
15.1312
 11
46.4
 21
15.1312
  0
LINE
  8
0
 10
46.4
 20
15.1312
 11
46.4
 21
34.8688
  0
LINE
  8
0
 10
46.4
 20
34.8688
 11
40.2
 21
34.8688
  0
LINE
  8
0
 10
40.2
 20
34.8688
 11
39.9329
 21
34.8856
  0
LINE
  8
0
 10
39.9329
 20
34.8856
 11
39.67
 21
34.9357
  0
LINE
  8
0
 10
39.67
 20
34.9357
 11
39.4155
 21
35.0184
  0
LINE
  8
0
 10
39.4155
 20
35.0184
 11
39.1733
 21
35.1324
  0
LINE
  8
0
 10
39.1733
 20
35.1324
 11
38.9473
 21
35.2758
  0
LINE
  8
0
 10
38.9473
 20
35.2758
 11
38.7411
 21
35.4464
  0
LINE
  8
0
 10
38.7411
 20
35.4464
 11
38.5579
 21
35.6415
  0
LINE
  8
0
 10
38.5579
 20
35.6415
 11
38.4006
 21
35.858
  0
LINE
  8
0
 10
38.4006
 20
35.858
 11
38.2716
 21
36.0926
  0
LINE
  8
0
 10
38.2716
 20
36.0926
 11
38.1731
 21
36.3414
  0
LINE
  8
0
 10
38.1731
 20
36.3414
 11
38.1065
 21
36.6006
  0
LINE
  8
0
 10
38.1065
 20
36.6006
 11
38.073
 21
36.8662
  0
LINE
  8
0
 10
38.073
 20
36.8662
 11
38.073
 21
38.073
  0
LINE
  8
0
 10
38.073
 20
38.073
 11
36.8662
 21
38.073
  0
LINE
  8
0
 10
36.8662
 20
38.073
 11
36.6006
 21
38.1065
  0
LINE
  8
0
 10
36.6006
 20
38.1065
 11
36.3414
 21
38.1731
  0
LINE
  8
0
 10
36.3414
 20
38.1731
 11
36.0926
 21
38.2716
  0
LINE
  8
0
 10
36.0926
 20
38.2716
 11
35.858
 21
38.4006
  0
LINE
  8
0
 10
35.858
 20
38.4006
 11
35.6415
 21
38.5579
  0
LINE
  8
0
 10
35.6415
 20
38.5579
 11
35.4464
 21
38.7411
  0
LINE
  8
0
 10
35.4464
 20
38.7411
 11
35.2758
 21
38.9473
  0
LINE
  8
0
 10
35.2758
 20
38.9473
 11
35.1324
 21
39.1733
  0
LINE
  8
0
 10
35.1324
 20
39.1733
 11
35.0184
 21
39.4155
  0
LINE
  8
0
 10
35.0184
 20
39.4155
 11
34.9357
 21
39.67
  0
LINE
  8
0
 10
34.9357
 20
39.67
 11
34.8856
 21
39.9329
  0
LINE
  8
0
 10
34.8856
 20
39.9329
 11
34.8688
 21
40.2
  0
LINE
  8
0
 10
34.8688
 20
40.2
 11
34.8688
 21
46.4
  0
LINE
  8
0
 10
34.8688
 20
46.4
 11
15.1312
 21
46.4
  0
LINE
  8
0
 10
15.1312
 20
46.4
 11
15.1312
 21
40.2
  0
LINE
  8
0
 10
15.1312
 20
40.2
 11
15.1144
 21
39.9329
  0
LINE
  8
0
 10
15.1144
 20
39.9329
 11
15.0642
 21
39.67
  0
LINE
  8
0
 10
15.0642
 20
39.67
 11
14.9815
 21
39.4155
  0
LINE
  8
0
 10
14.9815
 20
39.4155
 11
14.8676
 21
39.1733
  0
LINE
  8
0
 10
14.8676
 20
39.1733
 11
14.7242
 21
38.9473
  0
LINE
  8
0
 10
14.7242
 20
38.9473
 11
14.5536
 21
38.7411
  0
LINE
  8
0
 10
14.5536
 20
38.7411
 11
14.3585
 21
38.5579
  0
LINE
  8
0
 10
14.3585
 20
38.5579
 11
14.142
 21
38.4006
  0
LINE
  8
0
 10
14.142
 20
38.4006
 11
13.9074
 21
38.2716
  0
LINE
  8
0
 10
13.9074
 20
38.2716
 11
13.6586
 21
38.1731
  0
LINE
  8
0
 10
13.6586
 20
38.1731
 11
13.3993
 21
38.1065
  0
LINE
  8
0
 10
13.3993
 20
38.1065
 11
13.1338
 21
38.073
  0
LINE
  8
0
 10
13.1338
 20
38.073
 11
11.927
 21
38.073
  0
LINE
  8
0
 10
11.927
 20
38.073
 11
11.927
 21
36.8662
  0
LINE
  8
0
 10
11.927
 20
36.8662
 11
11.8934
 21
36.6006
  0
LINE
  8
0
 10
11.8934
 20
36.6006
 11
11.8269
 21
36.3414
  0
LINE
  8
0
 10
11.8269
 20
36.3414
 11
11.7284
 21
36.0926
  0
LINE
  8
0
 10
11.7284
 20
36.0926
 11
11.5994
 21
35.858
  0
LINE
  8
0
 10
11.5994
 20
35.858
 11
11.4421
 21
35.6415
  0
LINE
  8
0
 10
11.4421
 20
35.6415
 11
11.2589
 21
35.4464
  0
LINE
  8
0
 10
11.2589
 20
35.4464
 11
11.0527
 21
35.2758
  0
LINE
  8
0
 10
11.0527
 20
35.2758
 11
10.8267
 21
35.1324
  0
LINE
  8
0
 10
10.8267
 20
35.1324
 11
10.5845
 21
35.0184
  0
LINE
  8
0
 10
10.5845
 20
35.0184
 11
10.33
 21
34.9357
  0
LINE
  8
0
 10
10.33
 20
34.9357
 11
10.0671
 21
34.8856
  0
LINE
  8
0
 10
10.0671
 20
34.8856
 11
9.79999
 21
34.8688
  0
LINE
  8
0
 10
9.79999
 20
34.8688
 11
3.59999
 21
34.8688
  0
LINE
  8
0
 10
3.59999
 20
34.8688
 11
3.59999
 21
15.1312
  0
LINE
  8
0
 10
3.59999
 20
15.1312
 11
9.79999
 21
15.1312
  0
LINE
  8
0
 10
9.79999
 20
15.1312
 11
10.0671
 21
15.1144
  0
LINE
  8
0
 10
10.0671
 20
15.1144
 11
10.33
 21
15.0642
  0
LINE
  8
0
 10
10.33
 20
15.0642
 11
10.5845
 21
14.9815
  0
LINE
  8
0
 10
10.5845
 20
14.9815
 11
10.8267
 21
14.8676
  0
LINE
  8
0
 10
10.8267
 20
14.8676
 11
11.0527
 21
14.7242
  0
LINE
  8
0
 10
11.0527
 20
14.7242
 11
11.2589
 21
14.5536
  0
LINE
  8
0
 10
11.2589
 20
14.5536
 11
11.4421
 21
14.3585
  0
LINE
  8
0
 10
11.4421
 20
14.3585
 11
11.5994
 21
14.142
  0
LINE
  8
0
 10
11.5994
 20
14.142
 11
11.7284
 21
13.9074
  0
LINE
  8
0
 10
11.7284
 20
13.9074
 11
11.8269
 21
13.6586
  0
LINE
  8
0
 10
11.8269
 20
13.6586
 11
11.8934
 21
13.3993
  0
LINE
  8
0
 10
11.8934
 20
13.3993
 11
11.927
 21
13.1338
  0
LINE
  8
0
 10
11.927
 20
13.1338
 11
11.927
 21
11.927
  0
LINE
  8
0
 10
11.927
 20
11.927
 11
13.1338
 21
11.927
  0
LINE
  8
0
 10
13.1338
 20
11.927
 11
13.3993
 21
11.8934
  0
LINE
  8
0
 10
13.3993
 20
11.8934
 11
13.6586
 21
11.8269
  0
LINE
  8
0
 10
13.6586
 20
11.8269
 11
13.9074
 21
11.7284
  0
LINE
  8
0
 10
13.9074
 20
11.7284
 11
14.142
 21
11.5994
  0
LINE
  8
0
 10
14.142
 20
11.5994
 11
14.3585
 21
11.4421
  0
LINE
  8
0
 10
14.3585
 20
11.4421
 11
14.5536
 21
11.2589
  0
LINE
  8
0
 10
14.5536
 20
11.2589
 11
14.7242
 21
11.0527
  0
LINE
  8
0
 10
14.7242
 20
11.0527
 11
14.8676
 21
10.8267
  0
LINE
  8
0
 10
14.8676
 20
10.8267
 11
14.9815
 21
10.5845
  0
LINE
  8
0
 10
14.9815
 20
10.5845
 11
15.0642
 21
10.33
  0
LINE
  8
0
 10
15.0642
 20
10.33
 11
15.1144
 21
10.0671
  0
LINE
  8
0
 10
15.1144
 20
10.0671
 11
15.1312
 21
9.79999
  0
LINE
  8
0
 10
15.1312
 20
9.79999
 11
15.1312
 21
3.59999
  0
LINE
  8
0
 10
15.1312
 20
3.59999
 11
34.8688
 21
3.59999
  0
LINE
  8
0
 10
34.8688
 20
3.59999
 11
34.8688
 21
9.79999
  0
LINE
  8
0
 10
32.4058
 20
33.003
 11
32.2189
 21
33.0266
  0
LINE
  8
0
 10
32.2189
 20
33.0266
 11
32.0365
 21
33.0734
  0
LINE
  8
0
 10
32.0365
 20
33.0734
 11
31.8613
 21
33.1428
  0
LINE
  8
0
 10
31.8613
 20
33.1428
 11
31.6963
 21
33.2335
  0
LINE
  8
0
 10
31.6963
 20
33.2335
 11
31.5439
 21
33.3442
  0
LINE
  8
0
 10
31.5439
 20
33.3442
 11
31.4065
 21
33.4732
  0
LINE
  8
0
 10
31.4065
 20
33.4732
 11
31.2865
 21
33.6183
  0
LINE
  8
0
 10
31.2865
 20
33.6183
 11
31.1855
 21
33.7774
  0
LINE
  8
0
 10
31.1855
 20
33.7774
 11
31.1053
 21
33.9478
  0
LINE
  8
0
 10
31.1053
 20
33.9478
 11
31.0471
 21
34.127
  0
LINE
  8
0
 10
31.0471
 20
34.127
 11
31.0118
 21
34.312
  0
LINE
  8
0
 10
31.0118
 20
34.312
 11
31
 21
34.5
  0
LINE
  8
0
 10
31
 20
34.5
 11
31
 21
43.6
  0
LINE
  8
0
 10
31
 20
43.6
 11
31.0118
 21
43.788
  0
LINE
  8
0
 10
31.0118
 20
43.788
 11
31.0471
 21
43.973
  0
LINE
  8
0
 10
31.0471
 20
43.973
 11
31.1053
 21
44.1522
  0
LINE
  8
0
 10
31.1053
 20
44.1522
 11
31.1855
 21
44.3226
  0
LINE
  8
0
 10
31.1855
 20
44.3226
 11
31.2865
 21
44.4817
  0
LINE
  8
0
 10
31.2865
 20
44.4817
 11
31.4065
 21
44.6268
  0
LINE
  8
0
 10
31.4065
 20
44.6268
 11
31.5439
 21
44.7558
  0
LINE
  8
0
 10
31.5439
 20
44.7558
 11
31.6963
 21
44.8665
  0
LINE
  8
0
 10
31.6963
 20
44.8665
 11
31.8613
 21
44.9572
  0
LINE
  8
0
 10
31.8613
 20
44.9572
 11
32.0365
 21
45.0266
  0
LINE
  8
0
 10
32.0365
 20
45.0266
 11
32.2189
 21
45.0734
  0
LINE
  8
0
 10
32.2189
 20
45.0734
 11
32.4058
 21
45.097
  0
LINE
  8
0
 10
32.4058
 20
45.097
 11
32.5942
 21
45.097
  0
LINE
  8
0
 10
32.5942
 20
45.097
 11
32.7811
 21
45.0734
  0
LINE
  8
0
 10
32.7811
 20
45.0734
 11
32.9635
 21
45.0266
  0
LINE
  8
0
 10
32.9635
 20
45.0266
 11
33.1387
 21
44.9572
  0
LINE
  8
0
 10
33.1387
 20
44.9572
 11
33.3037
 21
44.8665
  0
LINE
  8
0
 10
33.3037
 20
44.8665
 11
33.4561
 21
44.7558
  0
LINE
  8
0
 10
33.4561
 20
44.7558
 11
33.5934
 21
44.6268
  0
LINE
  8
0
 10
33.5934
 20
44.6268
 11
33.7135
 21
44.4817
  0
LINE
  8
0
 10
33.7135
 20
44.4817
 11
33.8145
 21
44.3226
  0
LINE
  8
0
 10
33.8145
 20
44.3226
 11
33.8947
 21
44.1522
  0
LINE
  8
0
 10
33.8947
 20
44.1522
 11
33.9529
 21
43.973
  0
LINE
  8
0
 10
33.9529
 20
43.973
 11
33.9882
 21
43.788
  0
LINE
  8
0
 10
33.9882
 20
43.788
 11
34
 21
43.6
  0
LINE
  8
0
 10
34
 20
43.6
 11
34
 21
34.5
  0
LINE
  8
0
 10
34
 20
34.5
 11
33.9882
 21
34.312
  0
LINE
  8
0
 10
33.9882
 20
34.312
 11
33.9529
 21
34.127
  0
LINE
  8
0
 10
33.9529
 20
34.127
 11
33.8947
 21
33.9478
  0
LINE
  8
0
 10
33.8947
 20
33.9478
 11
33.8145
 21
33.7774
  0
LINE
  8
0
 10
33.8145
 20
33.7774
 11
33.7135
 21
33.6183
  0
LINE
  8
0
 10
33.7135
 20
33.6183
 11
33.5934
 21
33.4732
  0
LINE
  8
0
 10
33.5934
 20
33.4732
 11
33.4561
 21
33.3442
  0
LINE
  8
0
 10
33.4561
 20
33.3442
 11
33.3037
 21
33.2335
  0
LINE
  8
0
 10
33.3037
 20
33.2335
 11
33.1387
 21
33.1428
  0
LINE
  8
0
 10
33.1387
 20
33.1428
 11
32.9635
 21
33.0734
  0
LINE
  8
0
 10
32.9635
 20
33.0734
 11
32.7811
 21
33.0266
  0
LINE
  8
0
 10
32.7811
 20
33.0266
 11
32.5942
 21
33.003
  0
LINE
  8
0
 10
32.5942
 20
33.003
 11
32.4058
 21
33.003
  0
LINE
  8
0
 10
20.6058
 20
33.003
 11
20.4189
 21
33.0266
  0
LINE
  8
0
 10
20.4189
 20
33.0266
 11
20.2365
 21
33.0734
  0
LINE
  8
0
 10
20.2365
 20
33.0734
 11
20.0613
 21
33.1428
  0
LINE
  8
0
 10
20.0613
 20
33.1428
 11
19.8963
 21
33.2335
  0
LINE
  8
0
 10
19.8963
 20
33.2335
 11
19.7439
 21
33.3442
  0
LINE
  8
0
 10
19.7439
 20
33.3442
 11
19.6065
 21
33.4732
  0
LINE
  8
0
 10
19.6065
 20
33.4732
 11
19.4865
 21
33.6183
  0
LINE
  8
0
 10
19.4865
 20
33.6183
 11
19.3855
 21
33.7774
  0
LINE
  8
0
 10
19.3855
 20
33.7774
 11
19.3053
 21
33.9478
  0
LINE
  8
0
 10
19.3053
 20
33.9478
 11
19.2471
 21
34.127
  0
LINE
  8
0
 10
19.2471
 20
34.127
 11
19.2118
 21
34.312
  0
LINE
  8
0
 10
19.2118
 20
34.312
 11
19.2
 21
34.5
  0
LINE
  8
0
 10
19.2
 20
34.5
 11
19.2
 21
43.6
  0
LINE
  8
0
 10
19.2
 20
43.6
 11
19.2118
 21
43.788
  0
LINE
  8
0
 10
19.2118
 20
43.788
 11
19.2471
 21
43.973
  0
LINE
  8
0
 10
19.2471
 20
43.973
 11
19.3053
 21
44.1522
  0
LINE
  8
0
 10
19.3053
 20
44.1522
 11
19.3855
 21
44.3226
  0
LINE
  8
0
 10
19.3855
 20
44.3226
 11
19.4865
 21
44.4817
  0
LINE
  8
0
 10
19.4865
 20
44.4817
 11
19.6065
 21
44.6268
  0
LINE
  8
0
 10
19.6065
 20
44.6268
 11
19.7439
 21
44.7558
  0
LINE
  8
0
 10
19.7439
 20
44.7558
 11
19.8963
 21
44.8665
  0
LINE
  8
0
 10
19.8963
 20
44.8665
 11
20.0613
 21
44.9572
  0
LINE
  8
0
 10
20.0613
 20
44.9572
 11
20.2365
 21
45.0266
  0
LINE
  8
0
 10
20.2365
 20
45.0266
 11
20.4189
 21
45.0734
  0
LINE
  8
0
 10
20.4189
 20
45.0734
 11
20.6058
 21
45.097
  0
LINE
  8
0
 10
20.6058
 20
45.097
 11
20.7942
 21
45.097
  0
LINE
  8
0
 10
20.7942
 20
45.097
 11
20.9811
 21
45.0734
  0
LINE
  8
0
 10
20.9811
 20
45.0734
 11
21.1635
 21
45.0266
  0
LINE
  8
0
 10
21.1635
 20
45.0266
 11
21.3387
 21
44.9572
  0
LINE
  8
0
 10
21.3387
 20
44.9572
 11
21.5037
 21
44.8665
  0
LINE
  8
0
 10
21.5037
 20
44.8665
 11
21.6561
 21
44.7558
  0
LINE
  8
0
 10
21.6561
 20
44.7558
 11
21.7934
 21
44.6268
  0
LINE
  8
0
 10
21.7934
 20
44.6268
 11
21.9135
 21
44.4817
  0
LINE
  8
0
 10
21.9135
 20
44.4817
 11
22.0145
 21
44.3226
  0
LINE
  8
0
 10
22.0145
 20
44.3226
 11
22.0947
 21
44.1522
  0
LINE
  8
0
 10
22.0947
 20
44.1522
 11
22.1529
 21
43.973
  0
LINE
  8
0
 10
22.1529
 20
43.973
 11
22.1882
 21
43.788
  0
LINE
  8
0
 10
22.1882
 20
43.788
 11
22.2
 21
43.6
  0
LINE
  8
0
 10
22.2
 20
43.6
 11
22.2
 21
34.5
  0
LINE
  8
0
 10
22.2
 20
34.5
 11
22.1882
 21
34.312
  0
LINE
  8
0
 10
22.1882
 20
34.312
 11
22.1529
 21
34.127
  0
LINE
  8
0
 10
22.1529
 20
34.127
 11
22.0947
 21
33.9478
  0
LINE
  8
0
 10
22.0947
 20
33.9478
 11
22.0145
 21
33.7774
  0
LINE
  8
0
 10
22.0145
 20
33.7774
 11
21.9135
 21
33.6183
  0
LINE
  8
0
 10
21.9135
 20
33.6183
 11
21.7934
 21
33.4732
  0
LINE
  8
0
 10
21.7934
 20
33.4732
 11
21.6561
 21
33.3442
  0
LINE
  8
0
 10
21.6561
 20
33.3442
 11
21.5037
 21
33.2335
  0
LINE
  8
0
 10
21.5037
 20
33.2335
 11
21.3387
 21
33.1428
  0
LINE
  8
0
 10
21.3387
 20
33.1428
 11
21.1635
 21
33.0734
  0
LINE
  8
0
 10
21.1635
 20
33.0734
 11
20.9811
 21
33.0266
  0
LINE
  8
0
 10
20.9811
 20
33.0266
 11
20.7942
 21
33.003
  0
LINE
  8
0
 10
20.7942
 20
33.003
 11
20.6058
 21
33.003
  0
LINE
  8
0
 10
24.9003
 20
36.9149
 11
24.7024
 21
36.9399
  0
LINE
  8
0
 10
24.7024
 20
36.9399
 11
24.5092
 21
36.9895
  0
LINE
  8
0
 10
24.5092
 20
36.9895
 11
24.3238
 21
37.0629
  0
LINE
  8
0
 10
24.3238
 20
37.0629
 11
24.149
 21
37.159
  0
LINE
  8
0
 10
24.149
 20
37.159
 11
23.9876
 21
37.2762
  0
LINE
  8
0
 10
23.9876
 20
37.2762
 11
23.8422
 21
37.4128
  0
LINE
  8
0
 10
23.8422
 20
37.4128
 11
23.7151
 21
37.5665
  0
LINE
  8
0
 10
23.7151
 20
37.5665
 11
23.6082
 21
37.7349
  0
LINE
  8
0
 10
23.6082
 20
37.7349
 11
23.5233
 21
37.9153
  0
LINE
  8
0
 10
23.5233
 20
37.9153
 11
23.4617
 21
38.105
  0
LINE
  8
0
 10
23.4617
 20
38.105
 11
23.4243
 21
38.3009
  0
LINE
  8
0
 10
23.4243
 20
38.3009
 11
23.4118
 21
38.5
  0
LINE
  8
0
 10
23.4118
 20
38.5
 11
23.4243
 21
38.6991
  0
LINE
  8
0
 10
23.4243
 20
38.6991
 11
23.4617
 21
38.895
  0
LINE
  8
0
 10
23.4617
 20
38.895
 11
23.5233
 21
39.0847
  0
LINE
  8
0
 10
23.5233
 20
39.0847
 11
23.6082
 21
39.2651
  0
LINE
  8
0
 10
23.6082
 20
39.2651
 11
23.7151
 21
39.4335
  0
LINE
  8
0
 10
23.7151
 20
39.4335
 11
23.8422
 21
39.5872
  0
LINE
  8
0
 10
23.8422
 20
39.5872
 11
23.9876
 21
39.7238
  0
LINE
  8
0
 10
23.9876
 20
39.7238
 11
24.149
 21
39.841
  0
LINE
  8
0
 10
24.149
 20
39.841
 11
24.3238
 21
39.9371
  0
LINE
  8
0
 10
24.3238
 20
39.9371
 11
24.5092
 21
40.0105
  0
LINE
  8
0
 10
24.5092
 20
40.0105
 11
24.7024
 21
40.0601
  0
LINE
  8
0
 10
24.7024
 20
40.0601
 11
24.9003
 21
40.0851
  0
LINE
  8
0
 10
24.9003
 20
40.0851
 11
25.0997
 21
40.0851
  0
LINE
  8
0
 10
25.0997
 20
40.0851
 11
25.2976
 21
40.0601
  0
LINE
  8
0
 10
25.2976
 20
40.0601
 11
25.4908
 21
40.0105
  0
LINE
  8
0
 10
25.4908
 20
40.0105
 11
25.6762
 21
39.9371
  0
LINE
  8
0
 10
25.6762
 20
39.9371
 11
25.851
 21
39.841
  0
LINE
  8
0
 10
25.851
 20
39.841
 11
26.0124
 21
39.7238
  0
LINE
  8
0
 10
26.0124
 20
39.7238
 11
26.1578
 21
39.5872
  0
LINE
  8
0
 10
26.1578
 20
39.5872
 11
26.2849
 21
39.4335
  0
LINE
  8
0
 10
26.2849
 20
39.4335
 11
26.3918
 21
39.2651
  0
LINE
  8
0
 10
26.3918
 20
39.2651
 11
26.4767
 21
39.0847
  0
LINE
  8
0
 10
26.4767
 20
39.0847
 11
26.5383
 21
38.895
  0
LINE
  8
0
 10
26.5383
 20
38.895
 11
26.5757
 21
38.6991
  0
LINE
  8
0
 10
26.5757
 20
38.6991
 11
26.5882
 21
38.5
  0
LINE
  8
0
 10
26.5882
 20
38.5
 11
26.5757
 21
38.3009
  0
LINE
  8
0
 10
26.5757
 20
38.3009
 11
26.5383
 21
38.105
  0
LINE
  8
0
 10
26.5383
 20
38.105
 11
26.4767
 21
37.9153
  0
LINE
  8
0
 10
26.4767
 20
37.9153
 11
26.3918
 21
37.7349
  0
LINE
  8
0
 10
26.3918
 20
37.7349
 11
26.2849
 21
37.5665
  0
LINE
  8
0
 10
26.2849
 20
37.5665
 11
26.1578
 21
37.4128
  0
LINE
  8
0
 10
26.1578
 20
37.4128
 11
26.0124
 21
37.2762
  0
LINE
  8
0
 10
26.0124
 20
37.2762
 11
25.851
 21
37.159
  0
LINE
  8
0
 10
25.851
 20
37.159
 11
25.6762
 21
37.0629
  0
LINE
  8
0
 10
25.6762
 20
37.0629
 11
25.4908
 21
36.9895
  0
LINE
  8
0
 10
25.4908
 20
36.9895
 11
25.2976
 21
36.9399
  0
LINE
  8
0
 10
25.2976
 20
36.9399
 11
25.0997
 21
36.9149
  0
LINE
  8
0
 10
25.0997
 20
36.9149
 11
24.9003
 21
36.9149
  0
LINE
  8
0
 10
6.39999
 20
31
 11
6.21199
 21
31.0118
  0
LINE
  8
0
 10
6.21199
 20
31.0118
 11
6.02696
 21
31.0471
  0
LINE
  8
0
 10
6.02696
 20
31.0471
 11
5.84781
 21
31.1053
  0
LINE
  8
0
 10
5.84781
 20
31.1053
 11
5.67737
 21
31.1855
  0
LINE
  8
0
 10
5.67737
 20
31.1855
 11
5.51831
 21
31.2865
  0
LINE
  8
0
 10
5.51831
 20
31.2865
 11
5.37317
 21
31.4065
  0
LINE
  8
0
 10
5.37317
 20
31.4065
 11
5.24422
 21
31.5439
  0
LINE
  8
0
 10
5.24422
 20
31.5439
 11
5.1335
 21
31.6963
  0
LINE
  8
0
 10
5.1335
 20
31.6963
 11
5.04276
 21
31.8613
  0
LINE
  8
0
 10
5.04276
 20
31.8613
 11
4.9734
 21
32.0365
  0
LINE
  8
0
 10
4.9734
 20
32.0365
 11
4.92656
 21
32.2189
  0
LINE
  8
0
 10
4.92656
 20
32.2189
 11
4.90295
 21
32.4058
  0
LINE
  8
0
 10
4.90295
 20
32.4058
 11
4.90295
 21
32.5942
  0
LINE
  8
0
 10
4.90295
 20
32.5942
 11
4.92656
 21
32.7811
  0
LINE
  8
0
 10
4.92656
 20
32.7811
 11
4.9734
 21
32.9635
  0
LINE
  8
0
 10
4.9734
 20
32.9635
 11
5.04276
 21
33.1387
  0
LINE
  8
0
 10
5.04276
 20
33.1387
 11
5.1335
 21
33.3037
  0
LINE
  8
0
 10
5.1335
 20
33.3037
 11
5.24422
 21
33.4561
  0
LINE
  8
0
 10
5.24422
 20
33.4561
 11
5.37317
 21
33.5934
  0
LINE
  8
0
 10
5.37317
 20
33.5934
 11
5.51831
 21
33.7135
  0
LINE
  8
0
 10
5.51831
 20
33.7135
 11
5.67737
 21
33.8145
  0
LINE
  8
0
 10
5.67737
 20
33.8145
 11
5.84781
 21
33.8947
  0
LINE
  8
0
 10
5.84781
 20
33.8947
 11
6.02696
 21
33.9529
  0
LINE
  8
0
 10
6.02696
 20
33.9529
 11
6.21199
 21
33.9882
  0
LINE
  8
0
 10
6.21199
 20
33.9882
 11
6.39999
 21
34
  0
LINE
  8
0
 10
6.39999
 20
34
 11
15.5
 21
34
  0
LINE
  8
0
 10
15.5
 20
34
 11
15.688
 21
33.9882
  0
LINE
  8
0
 10
15.688
 20
33.9882
 11
15.873
 21
33.9529
  0
LINE
  8
0
 10
15.873
 20
33.9529
 11
16.0522
 21
33.8947
  0
LINE
  8
0
 10
16.0522
 20
33.8947
 11
16.2226
 21
33.8145
  0
LINE
  8
0
 10
16.2226
 20
33.8145
 11
16.3817
 21
33.7135
  0
LINE
  8
0
 10
16.3817
 20
33.7135
 11
16.5268
 21
33.5934
  0
LINE
  8
0
 10
16.5268
 20
33.5934
 11
16.6558
 21
33.4561
  0
LINE
  8
0
 10
16.6558
 20
33.4561
 11
16.7665
 21
33.3037
  0
LINE
  8
0
 10
16.7665
 20
33.3037
 11
16.8572
 21
33.1387
  0
LINE
  8
0
 10
16.8572
 20
33.1387
 11
16.9266
 21
32.9635
  0
LINE
  8
0
 10
16.9266
 20
32.9635
 11
16.9734
 21
32.7811
  0
LINE
  8
0
 10
16.9734
 20
32.7811
 11
16.997
 21
32.5942
  0
LINE
  8
0
 10
16.997
 20
32.5942
 11
16.997
 21
32.4058
  0
LINE
  8
0
 10
16.997
 20
32.4058
 11
16.9734
 21
32.2189
  0
LINE
  8
0
 10
16.9734
 20
32.2189
 11
16.9266
 21
32.0365
  0
LINE
  8
0
 10
16.9266
 20
32.0365
 11
16.8572
 21
31.8613
  0
LINE
  8
0
 10
16.8572
 20
31.8613
 11
16.7665
 21
31.6963
  0
LINE
  8
0
 10
16.7665
 20
31.6963
 11
16.6558
 21
31.5439
  0
LINE
  8
0
 10
16.6558
 20
31.5439
 11
16.5268
 21
31.4065
  0
LINE
  8
0
 10
16.5268
 20
31.4065
 11
16.3817
 21
31.2865
  0
LINE
  8
0
 10
16.3817
 20
31.2865
 11
16.2226
 21
31.1855
  0
LINE
  8
0
 10
16.2226
 20
31.1855
 11
16.0522
 21
31.1053
  0
LINE
  8
0
 10
16.0522
 20
31.1053
 11
15.873
 21
31.0471
  0
LINE
  8
0
 10
15.873
 20
31.0471
 11
15.688
 21
31.0118
  0
LINE
  8
0
 10
15.688
 20
31.0118
 11
15.5
 21
31
  0
LINE
  8
0
 10
15.5
 20
31
 11
6.39999
 21
31
  0
LINE
  8
0
 10
36.6371
 20
31.2103
 11
36.4767
 21
31.2408
  0
LINE
  8
0
 10
36.4767
 20
31.2408
 11
36.3214
 21
31.2913
  0
LINE
  8
0
 10
36.3214
 20
31.2913
 11
36.1737
 21
31.3608
  0
LINE
  8
0
 10
36.1737
 20
31.3608
 11
36.0359
 21
31.4483
  0
LINE
  8
0
 10
36.0359
 20
31.4483
 11
35.9101
 21
31.5523
  0
LINE
  8
0
 10
35.9101
 20
31.5523
 11
35.7983
 21
31.6713
  0
LINE
  8
0
 10
35.7983
 20
31.6713
 11
35.7024
 21
31.8034
  0
LINE
  8
0
 10
35.7024
 20
31.8034
 11
35.6237
 21
31.9465
  0
LINE
  8
0
 10
35.6237
 20
31.9465
 11
35.5636
 21
32.0983
  0
LINE
  8
0
 10
35.5636
 20
32.0983
 11
35.523
 21
32.2564
  0
LINE
  8
0
 10
35.523
 20
32.2564
 11
35.5026
 21
32.4184
  0
LINE
  8
0
 10
35.5026
 20
32.4184
 11
35.5026
 21
32.5816
  0
LINE
  8
0
 10
35.5026
 20
32.5816
 11
35.523
 21
32.7436
  0
LINE
  8
0
 10
35.523
 20
32.7436
 11
35.5636
 21
32.9017
  0
LINE
  8
0
 10
35.5636
 20
32.9017
 11
35.6237
 21
33.0535
  0
LINE
  8
0
 10
35.6237
 20
33.0535
 11
35.7024
 21
33.1966
  0
LINE
  8
0
 10
35.7024
 20
33.1966
 11
35.7983
 21
33.3286
  0
LINE
  8
0
 10
35.7983
 20
33.3286
 11
35.9101
 21
33.4476
  0
LINE
  8
0
 10
35.9101
 20
33.4476
 11
36.0359
 21
33.5517
  0
LINE
  8
0
 10
36.0359
 20
33.5517
 11
36.1737
 21
33.6392
  0
LINE
  8
0
 10
36.1737
 20
33.6392
 11
36.3214
 21
33.7087
  0
LINE
  8
0
 10
36.3214
 20
33.7087
 11
36.4767
 21
33.7592
  0
LINE
  8
0
 10
36.4767
 20
33.7592
 11
36.6371
 21
33.7897
  0
LINE
  8
0
 10
36.6371
 20
33.7897
 11
36.8
 21
33.8
  0
LINE
  8
0
 10
36.8
 20
33.8
 11
36.9629
 21
33.7897
  0
LINE
  8
0
 10
36.9629
 20
33.7897
 11
37.1233
 21
33.7592
  0
LINE
  8
0
 10
37.1233
 20
33.7592
 11
37.2786
 21
33.7087
  0
LINE
  8
0
 10
37.2786
 20
33.7087
 11
37.4263
 21
33.6392
  0
LINE
  8
0
 10
37.4263
 20
33.6392
 11
37.5641
 21
33.5517
  0
LINE
  8
0
 10
37.5641
 20
33.5517
 11
37.6899
 21
33.4476
  0
LINE
  8
0
 10
37.6899
 20
33.4476
 11
37.8017
 21
33.3286
  0
LINE
  8
0
 10
37.8017
 20
33.3286
 11
37.8976
 21
33.1966
  0
LINE
  8
0
 10
37.8976
 20
33.1966
 11
37.9763
 21
33.0535
  0
LINE
  8
0
 10
37.9763
 20
33.0535
 11
38.0364
 21
32.9017
  0
LINE
  8
0
 10
38.0364
 20
32.9017
 11
38.077
 21
32.7436
  0
LINE
  8
0
 10
38.077
 20
32.7436
 11
38.0974
 21
32.5816
  0
LINE
  8
0
 10
38.0974
 20
32.5816
 11
38.0974
 21
32.4184
  0
LINE
  8
0
 10
38.0974
 20
32.4184
 11
38.077
 21
32.2564
  0
LINE
  8
0
 10
38.077
 20
32.2564
 11
38.0364
 21
32.0983
  0
LINE
  8
0
 10
38.0364
 20
32.0983
 11
37.9763
 21
31.9465
  0
LINE
  8
0
 10
37.9763
 20
31.9465
 11
37.8976
 21
31.8034
  0
LINE
  8
0
 10
37.8976
 20
31.8034
 11
37.8017
 21
31.6713
  0
LINE
  8
0
 10
37.8017
 20
31.6713
 11
37.6899
 21
31.5523
  0
LINE
  8
0
 10
37.6899
 20
31.5523
 11
37.5641
 21
31.4483
  0
LINE
  8
0
 10
37.5641
 20
31.4483
 11
37.4263
 21
31.3608
  0
LINE
  8
0
 10
37.4263
 20
31.3608
 11
37.2786
 21
31.2913
  0
LINE
  8
0
 10
37.2786
 20
31.2913
 11
37.1233
 21
31.2408
  0
LINE
  8
0
 10
37.1233
 20
31.2408
 11
36.9629
 21
31.2103
  0
LINE
  8
0
 10
36.9629
 20
31.2103
 11
36.8
 21
31.2
  0
LINE
  8
0
 10
36.8
 20
31.2
 11
36.6371
 21
31.2103
  0
LINE
  8
0
 10
42.3636
 20
32.9017
 11
42.4237
 21
33.0535
  0
LINE
  8
0
 10
42.4237
 20
33.0535
 11
42.5024
 21
33.1966
  0
LINE
  8
0
 10
42.5024
 20
33.1966
 11
42.5983
 21
33.3286
  0
LINE
  8
0
 10
42.5983
 20
33.3286
 11
42.7101
 21
33.4476
  0
LINE
  8
0
 10
42.7101
 20
33.4476
 11
42.8359
 21
33.5517
  0
LINE
  8
0
 10
42.8359
 20
33.5517
 11
42.9737
 21
33.6392
  0
LINE
  8
0
 10
42.9737
 20
33.6392
 11
43.1214
 21
33.7087
  0
LINE
  8
0
 10
43.1214
 20
33.7087
 11
43.2767
 21
33.7592
  0
LINE
  8
0
 10
43.2767
 20
33.7592
 11
43.4371
 21
33.7897
  0
LINE
  8
0
 10
43.4371
 20
33.7897
 11
43.6
 21
33.8
  0
LINE
  8
0
 10
43.6
 20
33.8
 11
43.7629
 21
33.7897
  0
LINE
  8
0
 10
43.7629
 20
33.7897
 11
43.9233
 21
33.7592
  0
LINE
  8
0
 10
43.9233
 20
33.7592
 11
44.0786
 21
33.7087
  0
LINE
  8
0
 10
44.0786
 20
33.7087
 11
44.2263
 21
33.6392
  0
LINE
  8
0
 10
44.2263
 20
33.6392
 11
44.3641
 21
33.5517
  0
LINE
  8
0
 10
44.3641
 20
33.5517
 11
44.4899
 21
33.4476
  0
LINE
  8
0
 10
44.4899
 20
33.4476
 11
44.6017
 21
33.3286
  0
LINE
  8
0
 10
44.6017
 20
33.3286
 11
44.6976
 21
33.1966
  0
LINE
  8
0
 10
44.6976
 20
33.1966
 11
44.7763
 21
33.0535
  0
LINE
  8
0
 10
44.7763
 20
33.0535
 11
44.8364
 21
32.9017
  0
LINE
  8
0
 10
44.8364
 20
32.9017
 11
44.877
 21
32.7436
  0
LINE
  8
0
 10
44.877
 20
32.7436
 11
44.8974
 21
32.5816
  0
LINE
  8
0
 10
44.8974
 20
32.5816
 11
44.8974
 21
32.4184
  0
LINE
  8
0
 10
44.8974
 20
32.4184
 11
44.877
 21
32.2564
  0
LINE
  8
0
 10
44.877
 20
32.2564
 11
44.8364
 21
32.0983
  0
LINE
  8
0
 10
44.8364
 20
32.0983
 11
44.7763
 21
31.9465
  0
LINE
  8
0
 10
44.7763
 20
31.9465
 11
44.6976
 21
31.8034
  0
LINE
  8
0
 10
44.6976
 20
31.8034
 11
44.6017
 21
31.6713
  0
LINE
  8
0
 10
44.6017
 20
31.6713
 11
44.4899
 21
31.5523
  0
LINE
  8
0
 10
44.4899
 20
31.5523
 11
44.3641
 21
31.4483
  0
LINE
  8
0
 10
44.3641
 20
31.4483
 11
44.2263
 21
31.3608
  0
LINE
  8
0
 10
44.2263
 20
31.3608
 11
44.0786
 21
31.2913
  0
LINE
  8
0
 10
44.0786
 20
31.2913
 11
43.9233
 21
31.2408
  0
LINE
  8
0
 10
43.9233
 20
31.2408
 11
43.7629
 21
31.2103
  0
LINE
  8
0
 10
43.7629
 20
31.2103
 11
43.6
 21
31.2
  0
LINE
  8
0
 10
43.6
 20
31.2
 11
43.4371
 21
31.2103
  0
LINE
  8
0
 10
43.4371
 20
31.2103
 11
43.2767
 21
31.2408
  0
LINE
  8
0
 10
43.2767
 20
31.2408
 11
43.1214
 21
31.2913
  0
LINE
  8
0
 10
43.1214
 20
31.2913
 11
42.9737
 21
31.3608
  0
LINE
  8
0
 10
42.9737
 20
31.3608
 11
42.8359
 21
31.4483
  0
LINE
  8
0
 10
42.8359
 20
31.4483
 11
42.7101
 21
31.5523
  0
LINE
  8
0
 10
42.7101
 20
31.5523
 11
42.5983
 21
31.6713
  0
LINE
  8
0
 10
42.5983
 20
31.6713
 11
42.5024
 21
31.8034
  0
LINE
  8
0
 10
42.5024
 20
31.8034
 11
42.4237
 21
31.9465
  0
LINE
  8
0
 10
42.4237
 20
31.9465
 11
42.3636
 21
32.0983
  0
LINE
  8
0
 10
42.3636
 20
32.0983
 11
42.323
 21
32.2564
  0
LINE
  8
0
 10
42.323
 20
32.2564
 11
42.3026
 21
32.4184
  0
LINE
  8
0
 10
42.3026
 20
32.4184
 11
42.3026
 21
32.5816
  0
LINE
  8
0
 10
42.3026
 20
32.5816
 11
42.323
 21
32.7436
  0
LINE
  8
0
 10
42.323
 20
32.7436
 11
42.3636
 21
32.9017
  0
LINE
  8
0
 10
34.5
 20
27.8
 11
34.312
 21
27.8118
  0
LINE
  8
0
 10
34.312
 20
27.8118
 11
34.127
 21
27.8471
  0
LINE
  8
0
 10
34.127
 20
27.8471
 11
33.9478
 21
27.9053
  0
LINE
  8
0
 10
33.9478
 20
27.9053
 11
33.7774
 21
27.9855
  0
LINE
  8
0
 10
33.7774
 20
27.9855
 11
33.6183
 21
28.0865
  0
LINE
  8
0
 10
33.6183
 20
28.0865
 11
33.4732
 21
28.2065
  0
LINE
  8
0
 10
33.4732
 20
28.2065
 11
33.3442
 21
28.3439
  0
LINE
  8
0
 10
33.3442
 20
28.3439
 11
33.2335
 21
28.4962
  0
LINE
  8
0
 10
33.2335
 20
28.4962
 11
33.1428
 21
28.6613
  0
LINE
  8
0
 10
33.1428
 20
28.6613
 11
33.0734
 21
28.8365
  0
LINE
  8
0
 10
33.0734
 20
28.8365
 11
33.0266
 21
29.0189
  0
LINE
  8
0
 10
33.0266
 20
29.0189
 11
33.003
 21
29.2058
  0
LINE
  8
0
 10
33.003
 20
29.2058
 11
33.003
 21
29.3942
  0
LINE
  8
0
 10
33.003
 20
29.3942
 11
33.0266
 21
29.5811
  0
LINE
  8
0
 10
33.0266
 20
29.5811
 11
33.0734
 21
29.7635
  0
LINE
  8
0
 10
33.0734
 20
29.7635
 11
33.1428
 21
29.9387
  0
LINE
  8
0
 10
33.1428
 20
29.9387
 11
33.2335
 21
30.1037
  0
LINE
  8
0
 10
33.2335
 20
30.1037
 11
33.3442
 21
30.2561
  0
LINE
  8
0
 10
33.3442
 20
30.2561
 11
33.4732
 21
30.3934
  0
LINE
  8
0
 10
33.4732
 20
30.3934
 11
33.6183
 21
30.5135
  0
LINE
  8
0
 10
33.6183
 20
30.5135
 11
33.7774
 21
30.6145
  0
LINE
  8
0
 10
33.7774
 20
30.6145
 11
33.9478
 21
30.6947
  0
LINE
  8
0
 10
33.9478
 20
30.6947
 11
34.127
 21
30.7529
  0
LINE
  8
0
 10
34.127
 20
30.7529
 11
34.312
 21
30.7882
  0
LINE
  8
0
 10
34.312
 20
30.7882
 11
34.5
 21
30.8
  0
LINE
  8
0
 10
34.5
 20
30.8
 11
43.6
 21
30.8
  0
LINE
  8
0
 10
43.6
 20
30.8
 11
43.788
 21
30.7882
  0
LINE
  8
0
 10
43.788
 20
30.7882
 11
43.973
 21
30.7529
  0
LINE
  8
0
 10
43.973
 20
30.7529
 11
44.1522
 21
30.6947
  0
LINE
  8
0
 10
44.1522
 20
30.6947
 11
44.3226
 21
30.6145
  0
LINE
  8
0
 10
44.3226
 20
30.6145
 11
44.4817
 21
30.5135
  0
LINE
  8
0
 10
44.4817
 20
30.5135
 11
44.6268
 21
30.3934
  0
LINE
  8
0
 10
44.6268
 20
30.3934
 11
44.7558
 21
30.2561
  0
LINE
  8
0
 10
44.7558
 20
30.2561
 11
44.8665
 21
30.1037
  0
LINE
  8
0
 10
44.8665
 20
30.1037
 11
44.9572
 21
29.9387
  0
LINE
  8
0
 10
44.9572
 20
29.9387
 11
45.0266
 21
29.7635
  0
LINE
  8
0
 10
45.0266
 20
29.7635
 11
45.0734
 21
29.5811
  0
LINE
  8
0
 10
45.0734
 20
29.5811
 11
45.097
 21
29.3942
  0
LINE
  8
0
 10
45.097
 20
29.3942
 11
45.097
 21
29.2058
  0
LINE
  8
0
 10
45.097
 20
29.2058
 11
45.0734
 21
29.0189
  0
LINE
  8
0
 10
45.0734
 20
29.0189
 11
45.0266
 21
28.8365
  0
LINE
  8
0
 10
45.0266
 20
28.8365
 11
44.9572
 21
28.6613
  0
LINE
  8
0
 10
44.9572
 20
28.6613
 11
44.8665
 21
28.4962
  0
LINE
  8
0
 10
44.8665
 20
28.4962
 11
44.7558
 21
28.3439
  0
LINE
  8
0
 10
44.7558
 20
28.3439
 11
44.6268
 21
28.2065
  0
LINE
  8
0
 10
44.6268
 20
28.2065
 11
44.4817
 21
28.0865
  0
LINE
  8
0
 10
44.4817
 20
28.0865
 11
44.3226
 21
27.9855
  0
LINE
  8
0
 10
44.3226
 20
27.9855
 11
44.1522
 21
27.9053
  0
LINE
  8
0
 10
44.1522
 20
27.9053
 11
43.973
 21
27.8471
  0
LINE
  8
0
 10
43.973
 20
27.8471
 11
43.788
 21
27.8118
  0
LINE
  8
0
 10
43.788
 20
27.8118
 11
43.6
 21
27.8
  0
LINE
  8
0
 10
43.6
 20
27.8
 11
34.5
 21
27.8
  0
LINE
  8
0
 10
38.3009
 20
23.4243
 11
38.105
 21
23.4617
  0
LINE
  8
0
 10
38.105
 20
23.4617
 11
37.9153
 21
23.5233
  0
LINE
  8
0
 10
37.9153
 20
23.5233
 11
37.7349
 21
23.6082
  0
LINE
  8
0
 10
37.7349
 20
23.6082
 11
37.5665
 21
23.7151
  0
LINE
  8
0
 10
37.5665
 20
23.7151
 11
37.4128
 21
23.8422
  0
LINE
  8
0
 10
37.4128
 20
23.8422
 11
37.2762
 21
23.9876
  0
LINE
  8
0
 10
37.2762
 20
23.9876
 11
37.159
 21
24.149
  0
LINE
  8
0
 10
37.159
 20
24.149
 11
37.0629
 21
24.3238
  0
LINE
  8
0
 10
37.0629
 20
24.3238
 11
36.9895
 21
24.5092
  0
LINE
  8
0
 10
36.9895
 20
24.5092
 11
36.9399
 21
24.7024
  0
LINE
  8
0
 10
36.9399
 20
24.7024
 11
36.9149
 21
24.9003
  0
LINE
  8
0
 10
36.9149
 20
24.9003
 11
36.9149
 21
25.0997
  0
LINE
  8
0
 10
36.9149
 20
25.0997
 11
36.9399
 21
25.2976
  0
LINE
  8
0
 10
36.9399
 20
25.2976
 11
36.9895
 21
25.4908
  0
LINE
  8
0
 10
36.9895
 20
25.4908
 11
37.0629
 21
25.6762
  0
LINE
  8
0
 10
37.0629
 20
25.6762
 11
37.159
 21
25.851
  0
LINE
  8
0
 10
37.159
 20
25.851
 11
37.2762
 21
26.0124
  0
LINE
  8
0
 10
37.2762
 20
26.0124
 11
37.4128
 21
26.1578
  0
LINE
  8
0
 10
37.4128
 20
26.1578
 11
37.5665
 21
26.2849
  0
LINE
  8
0
 10
37.5665
 20
26.2849
 11
37.7349
 21
26.3918
  0
LINE
  8
0
 10
37.7349
 20
26.3918
 11
37.9153
 21
26.4767
  0
LINE
  8
0
 10
37.9153
 20
26.4767
 11
38.105
 21
26.5383
  0
LINE
  8
0
 10
38.105
 20
26.5383
 11
38.3009
 21
26.5757
  0
LINE
  8
0
 10
38.3009
 20
26.5757
 11
38.5
 21
26.5882
  0
LINE
  8
0
 10
38.5
 20
26.5882
 11
38.6991
 21
26.5757
  0
LINE
  8
0
 10
38.6991
 20
26.5757
 11
38.895
 21
26.5383
  0
LINE
  8
0
 10
38.895
 20
26.5383
 11
39.0847
 21
26.4767
  0
LINE
  8
0
 10
39.0847
 20
26.4767
 11
39.2651
 21
26.3918
  0
LINE
  8
0
 10
39.2651
 20
26.3918
 11
39.4335
 21
26.2849
  0
LINE
  8
0
 10
39.4335
 20
26.2849
 11
39.5872
 21
26.1578
  0
LINE
  8
0
 10
39.5872
 20
26.1578
 11
39.7238
 21
26.0124
  0
LINE
  8
0
 10
39.7238
 20
26.0124
 11
39.841
 21
25.851
  0
LINE
  8
0
 10
39.841
 20
25.851
 11
39.9371
 21
25.6762
  0
LINE
  8
0
 10
39.9371
 20
25.6762
 11
40.0105
 21
25.4908
  0
LINE
  8
0
 10
40.0105
 20
25.4908
 11
40.0601
 21
25.2976
  0
LINE
  8
0
 10
40.0601
 20
25.2976
 11
40.0851
 21
25.0997
  0
LINE
  8
0
 10
40.0851
 20
25.0997
 11
40.0851
 21
24.9003
  0
LINE
  8
0
 10
40.0851
 20
24.9003
 11
40.0601
 21
24.7024
  0
LINE
  8
0
 10
40.0601
 20
24.7024
 11
40.0105
 21
24.5092
  0
LINE
  8
0
 10
40.0105
 20
24.5092
 11
39.9371
 21
24.3238
  0
LINE
  8
0
 10
39.9371
 20
24.3238
 11
39.841
 21
24.149
  0
LINE
  8
0
 10
39.841
 20
24.149
 11
39.7238
 21
23.9876
  0
LINE
  8
0
 10
39.7238
 20
23.9876
 11
39.5872
 21
23.8422
  0
LINE
  8
0
 10
39.5872
 20
23.8422
 11
39.4335
 21
23.7151
  0
LINE
  8
0
 10
39.4335
 20
23.7151
 11
39.2651
 21
23.6082
  0
LINE
  8
0
 10
39.2651
 20
23.6082
 11
39.0847
 21
23.5233
  0
LINE
  8
0
 10
39.0847
 20
23.5233
 11
38.895
 21
23.4617
  0
LINE
  8
0
 10
38.895
 20
23.4617
 11
38.6991
 21
23.4243
  0
LINE
  8
0
 10
38.6991
 20
23.4243
 11
38.5
 21
23.4118
  0
LINE
  8
0
 10
38.5
 20
23.4118
 11
38.3009
 21
23.4243
  0
LINE
  8
0
 10
11.3009
 20
23.4243
 11
11.105
 21
23.4617
  0
LINE
  8
0
 10
11.105
 20
23.4617
 11
10.9153
 21
23.5233
  0
LINE
  8
0
 10
10.9153
 20
23.5233
 11
10.7348
 21
23.6082
  0
LINE
  8
0
 10
10.7348
 20
23.6082
 11
10.5665
 21
23.7151
  0
LINE
  8
0
 10
10.5665
 20
23.7151
 11
10.4128
 21
23.8422
  0
LINE
  8
0
 10
10.4128
 20
23.8422
 11
10.2762
 21
23.9876
  0
LINE
  8
0
 10
10.2762
 20
23.9876
 11
10.159
 21
24.149
  0
LINE
  8
0
 10
10.159
 20
24.149
 11
10.0629
 21
24.3238
  0
LINE
  8
0
 10
10.0629
 20
24.3238
 11
9.98949
 21
24.5092
  0
LINE
  8
0
 10
9.98949
 20
24.5092
 11
9.9399
 21
24.7024
  0
LINE
  8
0
 10
9.9399
 20
24.7024
 11
9.91489
 21
24.9003
  0
LINE
  8
0
 10
9.91489
 20
24.9003
 11
9.91489
 21
25.0997
  0
LINE
  8
0
 10
9.91489
 20
25.0997
 11
9.9399
 21
25.2976
  0
LINE
  8
0
 10
9.9399
 20
25.2976
 11
9.98949
 21
25.4908
  0
LINE
  8
0
 10
9.98949
 20
25.4908
 11
10.0629
 21
25.6762
  0
LINE
  8
0
 10
10.0629
 20
25.6762
 11
10.159
 21
25.851
  0
LINE
  8
0
 10
10.159
 20
25.851
 11
10.2762
 21
26.0124
  0
LINE
  8
0
 10
10.2762
 20
26.0124
 11
10.4128
 21
26.1578
  0
LINE
  8
0
 10
10.4128
 20
26.1578
 11
10.5665
 21
26.2849
  0
LINE
  8
0
 10
10.5665
 20
26.2849
 11
10.7348
 21
26.3918
  0
LINE
  8
0
 10
10.7348
 20
26.3918
 11
10.9153
 21
26.4767
  0
LINE
  8
0
 10
10.9153
 20
26.4767
 11
11.105
 21
26.5383
  0
LINE
  8
0
 10
11.105
 20
26.5383
 11
11.3009
 21
26.5757
  0
LINE
  8
0
 10
11.3009
 20
26.5757
 11
11.5
 21
26.5882
  0
LINE
  8
0
 10
11.5
 20
26.5882
 11
11.6991
 21
26.5757
  0
LINE
  8
0
 10
11.6991
 20
26.5757
 11
11.895
 21
26.5383
  0
LINE
  8
0
 10
11.895
 20
26.5383
 11
12.0847
 21
26.4767
  0
LINE
  8
0
 10
12.0847
 20
26.4767
 11
12.2651
 21
26.3918
  0
LINE
  8
0
 10
12.2651
 20
26.3918
 11
12.4335
 21
26.2849
  0
LINE
  8
0
 10
12.4335
 20
26.2849
 11
12.5872
 21
26.1578
  0
LINE
  8
0
 10
12.5872
 20
26.1578
 11
12.7238
 21
26.0124
  0
LINE
  8
0
 10
12.7238
 20
26.0124
 11
12.841
 21
25.851
  0
LINE
  8
0
 10
12.841
 20
25.851
 11
12.9371
 21
25.6762
  0
LINE
  8
0
 10
12.9371
 20
25.6762
 11
13.0105
 21
25.4908
  0
LINE
  8
0
 10
13.0105
 20
25.4908
 11
13.0601
 21
25.2976
  0
LINE
  8
0
 10
13.0601
 20
25.2976
 11
13.0851
 21
25.0997
  0
LINE
  8
0
 10
13.0851
 20
25.0997
 11
13.0851
 21
24.9003
  0
LINE
  8
0
 10
13.0851
 20
24.9003
 11
13.0601
 21
24.7024
  0
LINE
  8
0
 10
13.0601
 20
24.7024
 11
13.0105
 21
24.5092
  0
LINE
  8
0
 10
13.0105
 20
24.5092
 11
12.9371
 21
24.3238
  0
LINE
  8
0
 10
12.9371
 20
24.3238
 11
12.841
 21
24.149
  0
LINE
  8
0
 10
12.841
 20
24.149
 11
12.7238
 21
23.9876
  0
LINE
  8
0
 10
12.7238
 20
23.9876
 11
12.5872
 21
23.8422
  0
LINE
  8
0
 10
12.5872
 20
23.8422
 11
12.4335
 21
23.7151
  0
LINE
  8
0
 10
12.4335
 20
23.7151
 11
12.2651
 21
23.6082
  0
LINE
  8
0
 10
12.2651
 20
23.6082
 11
12.0847
 21
23.5233
  0
LINE
  8
0
 10
12.0847
 20
23.5233
 11
11.895
 21
23.4617
  0
LINE
  8
0
 10
11.895
 20
23.4617
 11
11.6991
 21
23.4243
  0
LINE
  8
0
 10
11.6991
 20
23.4243
 11
11.5
 21
23.4118
  0
LINE
  8
0
 10
11.5
 20
23.4118
 11
11.3009
 21
23.4243
  0
LINE
  8
0
 10
6.39999
 20
19.2
 11
6.21199
 21
19.2118
  0
LINE
  8
0
 10
6.21199
 20
19.2118
 11
6.02696
 21
19.2471
  0
LINE
  8
0
 10
6.02696
 20
19.2471
 11
5.84781
 21
19.3053
  0
LINE
  8
0
 10
5.84781
 20
19.3053
 11
5.67737
 21
19.3855
  0
LINE
  8
0
 10
5.67737
 20
19.3855
 11
5.51831
 21
19.4865
  0
LINE
  8
0
 10
5.51831
 20
19.4865
 11
5.37317
 21
19.6065
  0
LINE
  8
0
 10
5.37317
 20
19.6065
 11
5.24422
 21
19.7439
  0
LINE
  8
0
 10
5.24422
 20
19.7439
 11
5.1335
 21
19.8963
  0
LINE
  8
0
 10
5.1335
 20
19.8963
 11
5.04276
 21
20.0613
  0
LINE
  8
0
 10
5.04276
 20
20.0613
 11
4.9734
 21
20.2365
  0
LINE
  8
0
 10
4.9734
 20
20.2365
 11
4.92656
 21
20.4189
  0
LINE
  8
0
 10
4.92656
 20
20.4189
 11
4.90295
 21
20.6058
  0
LINE
  8
0
 10
4.90295
 20
20.6058
 11
4.90295
 21
20.7942
  0
LINE
  8
0
 10
4.90295
 20
20.7942
 11
4.92656
 21
20.9811
  0
LINE
  8
0
 10
4.92656
 20
20.9811
 11
4.9734
 21
21.1635
  0
LINE
  8
0
 10
4.9734
 20
21.1635
 11
5.04276
 21
21.3387
  0
LINE
  8
0
 10
5.04276
 20
21.3387
 11
5.1335
 21
21.5037
  0
LINE
  8
0
 10
5.1335
 20
21.5037
 11
5.24422
 21
21.6561
  0
LINE
  8
0
 10
5.24422
 20
21.6561
 11
5.37317
 21
21.7934
  0
LINE
  8
0
 10
5.37317
 20
21.7934
 11
5.51831
 21
21.9135
  0
LINE
  8
0
 10
5.51831
 20
21.9135
 11
5.67737
 21
22.0145
  0
LINE
  8
0
 10
5.67737
 20
22.0145
 11
5.84781
 21
22.0947
  0
LINE
  8
0
 10
5.84781
 20
22.0947
 11
6.02696
 21
22.1529
  0
LINE
  8
0
 10
6.02696
 20
22.1529
 11
6.21199
 21
22.1882
  0
LINE
  8
0
 10
6.21199
 20
22.1882
 11
6.39999
 21
22.2
  0
LINE
  8
0
 10
6.39999
 20
22.2
 11
15.5
 21
22.2
  0
LINE
  8
0
 10
15.5
 20
22.2
 11
15.688
 21
22.1882
  0
LINE
  8
0
 10
15.688
 20
22.1882
 11
15.873
 21
22.1529
  0
LINE
  8
0
 10
15.873
 20
22.1529
 11
16.0522
 21
22.0947
  0
LINE
  8
0
 10
16.0522
 20
22.0947
 11
16.2226
 21
22.0145
  0
LINE
  8
0
 10
16.2226
 20
22.0145
 11
16.3817
 21
21.9135
  0
LINE
  8
0
 10
16.3817
 20
21.9135
 11
16.5268
 21
21.7934
  0
LINE
  8
0
 10
16.5268
 20
21.7934
 11
16.6558
 21
21.6561
  0
LINE
  8
0
 10
16.6558
 20
21.6561
 11
16.7665
 21
21.5037
  0
LINE
  8
0
 10
16.7665
 20
21.5037
 11
16.8572
 21
21.3387
  0
LINE
  8
0
 10
16.8572
 20
21.3387
 11
16.9266
 21
21.1635
  0
LINE
  8
0
 10
16.9266
 20
21.1635
 11
16.9734
 21
20.9811
  0
LINE
  8
0
 10
16.9734
 20
20.9811
 11
16.997
 21
20.7942
  0
LINE
  8
0
 10
16.997
 20
20.7942
 11
16.997
 21
20.6058
  0
LINE
  8
0
 10
16.997
 20
20.6058
 11
16.9734
 21
20.4189
  0
LINE
  8
0
 10
16.9734
 20
20.4189
 11
16.9266
 21
20.2365
  0
LINE
  8
0
 10
16.9266
 20
20.2365
 11
16.8572
 21
20.0613
  0
LINE
  8
0
 10
16.8572
 20
20.0613
 11
16.7665
 21
19.8963
  0
LINE
  8
0
 10
16.7665
 20
19.8963
 11
16.6558
 21
19.7439
  0
LINE
  8
0
 10
16.6558
 20
19.7439
 11
16.5268
 21
19.6065
  0
LINE
  8
0
 10
16.5268
 20
19.6065
 11
16.3817
 21
19.4865
  0
LINE
  8
0
 10
16.3817
 20
19.4865
 11
16.2226
 21
19.3855
  0
LINE
  8
0
 10
16.2226
 20
19.3855
 11
16.0522
 21
19.3053
  0
LINE
  8
0
 10
16.0522
 20
19.3053
 11
15.873
 21
19.2471
  0
LINE
  8
0
 10
15.873
 20
19.2471
 11
15.688
 21
19.2118
  0
LINE
  8
0
 10
15.688
 20
19.2118
 11
15.5
 21
19.2
  0
LINE
  8
0
 10
15.5
 20
19.2
 11
6.39999
 21
19.2
  0
LINE
  8
0
 10
36.6371
 20
19.4102
 11
36.4767
 21
19.4408
  0
LINE
  8
0
 10
36.4767
 20
19.4408
 11
36.3214
 21
19.4913
  0
LINE
  8
0
 10
36.3214
 20
19.4913
 11
36.1737
 21
19.5608
  0
LINE
  8
0
 10
36.1737
 20
19.5608
 11
36.0359
 21
19.6483
  0
LINE
  8
0
 10
36.0359
 20
19.6483
 11
35.9101
 21
19.7523
  0
LINE
  8
0
 10
35.9101
 20
19.7523
 11
35.7983
 21
19.8713
  0
LINE
  8
0
 10
35.7983
 20
19.8713
 11
35.7024
 21
20.0034
  0
LINE
  8
0
 10
35.7024
 20
20.0034
 11
35.6237
 21
20.1465
  0
LINE
  8
0
 10
35.6237
 20
20.1465
 11
35.5636
 21
20.2983
  0
LINE
  8
0
 10
35.5636
 20
20.2983
 11
35.523
 21
20.4564
  0
LINE
  8
0
 10
35.523
 20
20.4564
 11
35.5026
 21
20.6184
  0
LINE
  8
0
 10
35.5026
 20
20.6184
 11
35.5026
 21
20.7816
  0
LINE
  8
0
 10
35.5026
 20
20.7816
 11
35.523
 21
20.9436
  0
LINE
  8
0
 10
35.523
 20
20.9436
 11
35.5636
 21
21.1017
  0
LINE
  8
0
 10
35.5636
 20
21.1017
 11
35.6237
 21
21.2535
  0
LINE
  8
0
 10
35.6237
 20
21.2535
 11
35.7024
 21
21.3966
  0
LINE
  8
0
 10
35.7024
 20
21.3966
 11
35.7983
 21
21.5286
  0
LINE
  8
0
 10
35.7983
 20
21.5286
 11
35.9101
 21
21.6477
  0
LINE
  8
0
 10
35.9101
 20
21.6477
 11
36.0359
 21
21.7517
  0
LINE
  8
0
 10
36.0359
 20
21.7517
 11
36.1737
 21
21.8392
  0
LINE
  8
0
 10
36.1737
 20
21.8392
 11
36.3214
 21
21.9087
  0
LINE
  8
0
 10
36.3214
 20
21.9087
 11
36.4767
 21
21.9592
  0
LINE
  8
0
 10
36.4767
 20
21.9592
 11
36.6371
 21
21.9897
  0
LINE
  8
0
 10
36.6371
 20
21.9897
 11
36.8
 21
22
  0
LINE
  8
0
 10
36.8
 20
22
 11
36.9629
 21
21.9897
  0
LINE
  8
0
 10
36.9629
 20
21.9897
 11
37.1233
 21
21.9592
  0
LINE
  8
0
 10
37.1233
 20
21.9592
 11
37.2786
 21
21.9087
  0
LINE
  8
0
 10
37.2786
 20
21.9087
 11
37.4263
 21
21.8392
  0
LINE
  8
0
 10
37.4263
 20
21.8392
 11
37.5641
 21
21.7517
  0
LINE
  8
0
 10
37.5641
 20
21.7517
 11
37.6899
 21
21.6477
  0
LINE
  8
0
 10
37.6899
 20
21.6477
 11
37.8017
 21
21.5286
  0
LINE
  8
0
 10
37.8017
 20
21.5286
 11
37.8976
 21
21.3966
  0
LINE
  8
0
 10
37.8976
 20
21.3966
 11
37.9763
 21
21.2535
  0
LINE
  8
0
 10
37.9763
 20
21.2535
 11
38.0364
 21
21.1017
  0
LINE
  8
0
 10
38.0364
 20
21.1017
 11
38.077
 21
20.9436
  0
LINE
  8
0
 10
38.077
 20
20.9436
 11
38.0974
 21
20.7816
  0
LINE
  8
0
 10
38.0974
 20
20.7816
 11
38.0974
 21
20.6184
  0
LINE
  8
0
 10
38.0974
 20
20.6184
 11
38.077
 21
20.4564
  0
LINE
  8
0
 10
38.077
 20
20.4564
 11
38.0364
 21
20.2983
  0
LINE
  8
0
 10
38.0364
 20
20.2983
 11
37.9763
 21
20.1465
  0
LINE
  8
0
 10
37.9763
 20
20.1465
 11
37.8976
 21
20.0034
  0
LINE
  8
0
 10
37.8976
 20
20.0034
 11
37.8017
 21
19.8713
  0
LINE
  8
0
 10
37.8017
 20
19.8713
 11
37.6899
 21
19.7523
  0
LINE
  8
0
 10
37.6899
 20
19.7523
 11
37.5641
 21
19.6483
  0
LINE
  8
0
 10
37.5641
 20
19.6483
 11
37.4263
 21
19.5608
  0
LINE
  8
0
 10
37.4263
 20
19.5608
 11
37.2786
 21
19.4913
  0
LINE
  8
0
 10
37.2786
 20
19.4913
 11
37.1233
 21
19.4408
  0
LINE
  8
0
 10
37.1233
 20
19.4408
 11
36.9629
 21
19.4102
  0
LINE
  8
0
 10
36.9629
 20
19.4102
 11
36.8
 21
19.4
  0
LINE
  8
0
 10
36.8
 20
19.4
 11
36.6371
 21
19.4102
  0
LINE
  8
0
 10
43.4371
 20
19.4102
 11
43.2767
 21
19.4408
  0
LINE
  8
0
 10
43.2767
 20
19.4408
 11
43.1214
 21
19.4913
  0
LINE
  8
0
 10
43.1214
 20
19.4913
 11
42.9737
 21
19.5608
  0
LINE
  8
0
 10
42.9737
 20
19.5608
 11
42.8359
 21
19.6483
  0
LINE
  8
0
 10
42.8359
 20
19.6483
 11
42.7101
 21
19.7523
  0
LINE
  8
0
 10
42.7101
 20
19.7523
 11
42.5983
 21
19.8713
  0
LINE
  8
0
 10
42.5983
 20
19.8713
 11
42.5024
 21
20.0034
  0
LINE
  8
0
 10
42.5024
 20
20.0034
 11
42.4237
 21
20.1465
  0
LINE
  8
0
 10
42.4237
 20
20.1465
 11
42.3636
 21
20.2983
  0
LINE
  8
0
 10
42.3636
 20
20.2983
 11
42.323
 21
20.4564
  0
LINE
  8
0
 10
42.323
 20
20.4564
 11
42.3026
 21
20.6184
  0
LINE
  8
0
 10
42.3026
 20
20.6184
 11
42.3026
 21
20.7816
  0
LINE
  8
0
 10
42.3026
 20
20.7816
 11
42.323
 21
20.9436
  0
LINE
  8
0
 10
42.323
 20
20.9436
 11
42.3636
 21
21.1017
  0
LINE
  8
0
 10
42.3636
 20
21.1017
 11
42.4237
 21
21.2535
  0
LINE
  8
0
 10
42.4237
 20
21.2535
 11
42.5024
 21
21.3966
  0
LINE
  8
0
 10
42.5024
 20
21.3966
 11
42.5983
 21
21.5286
  0
LINE
  8
0
 10
42.5983
 20
21.5286
 11
42.7101
 21
21.6477
  0
LINE
  8
0
 10
42.7101
 20
21.6477
 11
42.8359
 21
21.7517
  0
LINE
  8
0
 10
42.8359
 20
21.7517
 11
42.9737
 21
21.8392
  0
LINE
  8
0
 10
42.9737
 20
21.8392
 11
43.1214
 21
21.9087
  0
LINE
  8
0
 10
43.1214
 20
21.9087
 11
43.2767
 21
21.9592
  0
LINE
  8
0
 10
43.2767
 20
21.9592
 11
43.4371
 21
21.9897
  0
LINE
  8
0
 10
43.4371
 20
21.9897
 11
43.6
 21
22
  0
LINE
  8
0
 10
43.6
 20
22
 11
43.7629
 21
21.9897
  0
LINE
  8
0
 10
43.7629
 20
21.9897
 11
43.9233
 21
21.9592
  0
LINE
  8
0
 10
43.9233
 20
21.9592
 11
44.0786
 21
21.9087
  0
LINE
  8
0
 10
44.0786
 20
21.9087
 11
44.2263
 21
21.8392
  0
LINE
  8
0
 10
44.2263
 20
21.8392
 11
44.3641
 21
21.7517
  0
LINE
  8
0
 10
44.3641
 20
21.7517
 11
44.4899
 21
21.6477
  0
LINE
  8
0
 10
44.4899
 20
21.6477
 11
44.6017
 21
21.5286
  0
LINE
  8
0
 10
44.6017
 20
21.5286
 11
44.6976
 21
21.3966
  0
LINE
  8
0
 10
44.6976
 20
21.3966
 11
44.7763
 21
21.2535
  0
LINE
  8
0
 10
44.7763
 20
21.2535
 11
44.8364
 21
21.1017
  0
LINE
  8
0
 10
44.8364
 20
21.1017
 11
44.877
 21
20.9436
  0
LINE
  8
0
 10
44.877
 20
20.9436
 11
44.8974
 21
20.7816
  0
LINE
  8
0
 10
44.8974
 20
20.7816
 11
44.8974
 21
20.6184
  0
LINE
  8
0
 10
44.8974
 20
20.6184
 11
44.877
 21
20.4564
  0
LINE
  8
0
 10
44.877
 20
20.4564
 11
44.8364
 21
20.2983
  0
LINE
  8
0
 10
44.8364
 20
20.2983
 11
44.7763
 21
20.1465
  0
LINE
  8
0
 10
44.7763
 20
20.1465
 11
44.6976
 21
20.0034
  0
LINE
  8
0
 10
44.6976
 20
20.0034
 11
44.6017
 21
19.8713
  0
LINE
  8
0
 10
44.6017
 20
19.8713
 11
44.4899
 21
19.7523
  0
LINE
  8
0
 10
44.4899
 20
19.7523
 11
44.3641
 21
19.6483
  0
LINE
  8
0
 10
44.3641
 20
19.6483
 11
44.2263
 21
19.5608
  0
LINE
  8
0
 10
44.2263
 20
19.5608
 11
44.0786
 21
19.4913
  0
LINE
  8
0
 10
44.0786
 20
19.4913
 11
43.9233
 21
19.4408
  0
LINE
  8
0
 10
43.9233
 20
19.4408
 11
43.7629
 21
19.4102
  0
LINE
  8
0
 10
43.7629
 20
19.4102
 11
43.6
 21
19.4
  0
LINE
  8
0
 10
43.6
 20
19.4
 11
43.4371
 21
19.4102
  0
LINE
  8
0
 10
40.0371
 20
19.4102
 11
39.8767
 21
19.4408
  0
LINE
  8
0
 10
39.8767
 20
19.4408
 11
39.7214
 21
19.4913
  0
LINE
  8
0
 10
39.7214
 20
19.4913
 11
39.5737
 21
19.5608
  0
LINE
  8
0
 10
39.5737
 20
19.5608
 11
39.4359
 21
19.6483
  0
LINE
  8
0
 10
39.4359
 20
19.6483
 11
39.3101
 21
19.7523
  0
LINE
  8
0
 10
39.3101
 20
19.7523
 11
39.1983
 21
19.8713
  0
LINE
  8
0
 10
39.1983
 20
19.8713
 11
39.1024
 21
20.0034
  0
LINE
  8
0
 10
39.1024
 20
20.0034
 11
39.0237
 21
20.1465
  0
LINE
  8
0
 10
39.0237
 20
20.1465
 11
38.9636
 21
20.2983
  0
LINE
  8
0
 10
38.9636
 20
20.2983
 11
38.923
 21
20.4564
  0
LINE
  8
0
 10
38.923
 20
20.4564
 11
38.9026
 21
20.6184
  0
LINE
  8
0
 10
38.9026
 20
20.6184
 11
38.9026
 21
20.7816
  0
LINE
  8
0
 10
38.9026
 20
20.7816
 11
38.923
 21
20.9436
  0
LINE
  8
0
 10
38.923
 20
20.9436
 11
38.9636
 21
21.1017
  0
LINE
  8
0
 10
38.9636
 20
21.1017
 11
39.0237
 21
21.2535
  0
LINE
  8
0
 10
39.0237
 20
21.2535
 11
39.1024
 21
21.3966
  0
LINE
  8
0
 10
39.1024
 20
21.3966
 11
39.1983
 21
21.5286
  0
LINE
  8
0
 10
39.1983
 20
21.5286
 11
39.3101
 21
21.6477
  0
LINE
  8
0
 10
39.3101
 20
21.6477
 11
39.4359
 21
21.7517
  0
LINE
  8
0
 10
39.4359
 20
21.7517
 11
39.5737
 21
21.8392
  0
LINE
  8
0
 10
39.5737
 20
21.8392
 11
39.7214
 21
21.9087
  0
LINE
  8
0
 10
39.7214
 20
21.9087
 11
39.8767
 21
21.9592
  0
LINE
  8
0
 10
39.8767
 20
21.9592
 11
40.0371
 21
21.9897
  0
LINE
  8
0
 10
40.0371
 20
21.9897
 11
40.2
 21
22
  0
LINE
  8
0
 10
40.2
 20
22
 11
40.3629
 21
21.9897
  0
LINE
  8
0
 10
40.3629
 20
21.9897
 11
40.5233
 21
21.9592
  0
LINE
  8
0
 10
40.5233
 20
21.9592
 11
40.6786
 21
21.9087
  0
LINE
  8
0
 10
40.6786
 20
21.9087
 11
40.8263
 21
21.8392
  0
LINE
  8
0
 10
40.8263
 20
21.8392
 11
40.9641
 21
21.7517
  0
LINE
  8
0
 10
40.9641
 20
21.7517
 11
41.0899
 21
21.6477
  0
LINE
  8
0
 10
41.0899
 20
21.6477
 11
41.2017
 21
21.5286
  0
LINE
  8
0
 10
41.2017
 20
21.5286
 11
41.2976
 21
21.3966
  0
LINE
  8
0
 10
41.2976
 20
21.3966
 11
41.3763
 21
21.2535
  0
LINE
  8
0
 10
41.3763
 20
21.2535
 11
41.4364
 21
21.1017
  0
LINE
  8
0
 10
41.4364
 20
21.1017
 11
41.477
 21
20.9436
  0
LINE
  8
0
 10
41.477
 20
20.9436
 11
41.4974
 21
20.7816
  0
LINE
  8
0
 10
41.4974
 20
20.7816
 11
41.4974
 21
20.6184
  0
LINE
  8
0
 10
41.4974
 20
20.6184
 11
41.477
 21
20.4564
  0
LINE
  8
0
 10
41.477
 20
20.4564
 11
41.4364
 21
20.2983
  0
LINE
  8
0
 10
41.4364
 20
20.2983
 11
41.3763
 21
20.1465
  0
LINE
  8
0
 10
41.3763
 20
20.1465
 11
41.2976
 21
20.0034
  0
LINE
  8
0
 10
41.2976
 20
20.0034
 11
41.2017
 21
19.8713
  0
LINE
  8
0
 10
41.2017
 20
19.8713
 11
41.0899
 21
19.7523
  0
LINE
  8
0
 10
41.0899
 20
19.7523
 11
40.9641
 21
19.6483
  0
LINE
  8
0
 10
40.9641
 20
19.6483
 11
40.8263
 21
19.5608
  0
LINE
  8
0
 10
40.8263
 20
19.5608
 11
40.6786
 21
19.4913
  0
LINE
  8
0
 10
40.6786
 20
19.4913
 11
40.5233
 21
19.4408
  0
LINE
  8
0
 10
40.5233
 20
19.4408
 11
40.3629
 21
19.4102
  0
LINE
  8
0
 10
40.3629
 20
19.4102
 11
40.2
 21
19.4
  0
LINE
  8
0
 10
40.2
 20
19.4
 11
40.0371
 21
19.4102
  0
LINE
  8
0
 10
34.5
 20
16
 11
34.312
 21
16.0118
  0
LINE
  8
0
 10
34.312
 20
16.0118
 11
34.127
 21
16.0471
  0
LINE
  8
0
 10
34.127
 20
16.0471
 11
33.9478
 21
16.1053
  0
LINE
  8
0
 10
33.9478
 20
16.1053
 11
33.7774
 21
16.1855
  0
LINE
  8
0
 10
33.7774
 20
16.1855
 11
33.6183
 21
16.2865
  0
LINE
  8
0
 10
33.6183
 20
16.2865
 11
33.4732
 21
16.4065
  0
LINE
  8
0
 10
33.4732
 20
16.4065
 11
33.3442
 21
16.5439
  0
LINE
  8
0
 10
33.3442
 20
16.5439
 11
33.2335
 21
16.6963
  0
LINE
  8
0
 10
33.2335
 20
16.6963
 11
33.1428
 21
16.8613
  0
LINE
  8
0
 10
33.1428
 20
16.8613
 11
33.0734
 21
17.0365
  0
LINE
  8
0
 10
33.0734
 20
17.0365
 11
33.0266
 21
17.2189
  0
LINE
  8
0
 10
33.0266
 20
17.2189
 11
33.003
 21
17.4058
  0
LINE
  8
0
 10
33.003
 20
17.4058
 11
33.003
 21
17.5942
  0
LINE
  8
0
 10
33.003
 20
17.5942
 11
33.0266
 21
17.7811
  0
LINE
  8
0
 10
33.0266
 20
17.7811
 11
33.0734
 21
17.9635
  0
LINE
  8
0
 10
33.0734
 20
17.9635
 11
33.1428
 21
18.1387
  0
LINE
  8
0
 10
33.1428
 20
18.1387
 11
33.2335
 21
18.3037
  0
LINE
  8
0
 10
33.2335
 20
18.3037
 11
33.3442
 21
18.4561
  0
LINE
  8
0
 10
33.3442
 20
18.4561
 11
33.4732
 21
18.5934
  0
LINE
  8
0
 10
33.4732
 20
18.5934
 11
33.6183
 21
18.7135
  0
LINE
  8
0
 10
33.6183
 20
18.7135
 11
33.7774
 21
18.8145
  0
LINE
  8
0
 10
33.7774
 20
18.8145
 11
33.9478
 21
18.8947
  0
LINE
  8
0
 10
33.9478
 20
18.8947
 11
34.127
 21
18.9529
  0
LINE
  8
0
 10
34.127
 20
18.9529
 11
34.312
 21
18.9882
  0
LINE
  8
0
 10
34.312
 20
18.9882
 11
34.5
 21
19
  0
LINE
  8
0
 10
34.5
 20
19
 11
43.6
 21
19
  0
LINE
  8
0
 10
43.6
 20
19
 11
43.788
 21
18.9882
  0
LINE
  8
0
 10
43.788
 20
18.9882
 11
43.973
 21
18.9529
  0
LINE
  8
0
 10
43.973
 20
18.9529
 11
44.1522
 21
18.8947
  0
LINE
  8
0
 10
44.1522
 20
18.8947
 11
44.3226
 21
18.8145
  0
LINE
  8
0
 10
44.3226
 20
18.8145
 11
44.4817
 21
18.7135
  0
LINE
  8
0
 10
44.4817
 20
18.7135
 11
44.6268
 21
18.5934
  0
LINE
  8
0
 10
44.6268
 20
18.5934
 11
44.7558
 21
18.4561
  0
LINE
  8
0
 10
44.7558
 20
18.4561
 11
44.8665
 21
18.3037
  0
LINE
  8
0
 10
44.8665
 20
18.3037
 11
44.9572
 21
18.1387
  0
LINE
  8
0
 10
44.9572
 20
18.1387
 11
45.0266
 21
17.9635
  0
LINE
  8
0
 10
45.0266
 20
17.9635
 11
45.0734
 21
17.7811
  0
LINE
  8
0
 10
45.0734
 20
17.7811
 11
45.097
 21
17.5942
  0
LINE
  8
0
 10
45.097
 20
17.5942
 11
45.097
 21
17.4058
  0
LINE
  8
0
 10
45.097
 20
17.4058
 11
45.0734
 21
17.2189
  0
LINE
  8
0
 10
45.0734
 20
17.2189
 11
45.0266
 21
17.0365
  0
LINE
  8
0
 10
45.0266
 20
17.0365
 11
44.9572
 21
16.8613
  0
LINE
  8
0
 10
44.9572
 20
16.8613
 11
44.8665
 21
16.6963
  0
LINE
  8
0
 10
44.8665
 20
16.6963
 11
44.7558
 21
16.5439
  0
LINE
  8
0
 10
44.7558
 20
16.5439
 11
44.6268
 21
16.4065
  0
LINE
  8
0
 10
44.6268
 20
16.4065
 11
44.4817
 21
16.2865
  0
LINE
  8
0
 10
44.4817
 20
16.2865
 11
44.3226
 21
16.1855
  0
LINE
  8
0
 10
44.3226
 20
16.1855
 11
44.1522
 21
16.1053
  0
LINE
  8
0
 10
44.1522
 20
16.1053
 11
43.973
 21
16.0471
  0
LINE
  8
0
 10
43.973
 20
16.0471
 11
43.788
 21
16.0118
  0
LINE
  8
0
 10
43.788
 20
16.0118
 11
43.6
 21
16
  0
LINE
  8
0
 10
43.6
 20
16
 11
34.5
 21
16
  0
LINE
  8
0
 10
28.4962
 20
5.1335
 11
28.3439
 21
5.24422
  0
LINE
  8
0
 10
28.3439
 20
5.24422
 11
28.2065
 21
5.37317
  0
LINE
  8
0
 10
28.2065
 20
5.37317
 11
28.0865
 21
5.51831
  0
LINE
  8
0
 10
28.0865
 20
5.51831
 11
27.9855
 21
5.67737
  0
LINE
  8
0
 10
27.9855
 20
5.67737
 11
27.9053
 21
5.84781
  0
LINE
  8
0
 10
27.9053
 20
5.84781
 11
27.8471
 21
6.02696
  0
LINE
  8
0
 10
27.8471
 20
6.02696
 11
27.8118
 21
6.21199
  0
LINE
  8
0
 10
27.8118
 20
6.21199
 11
27.8
 21
6.39999
  0
LINE
  8
0
 10
27.8
 20
6.39999
 11
27.8
 21
15.5
  0
LINE
  8
0
 10
27.8
 20
15.5
 11
27.8118
 21
15.688
  0
LINE
  8
0
 10
27.8118
 20
15.688
 11
27.8471
 21
15.873
  0
LINE
  8
0
 10
27.8471
 20
15.873
 11
27.9053
 21
16.0522
  0
LINE
  8
0
 10
27.9053
 20
16.0522
 11
27.9855
 21
16.2226
  0
LINE
  8
0
 10
27.9855
 20
16.2226
 11
28.0865
 21
16.3817
  0
LINE
  8
0
 10
28.0865
 20
16.3817
 11
28.2065
 21
16.5268
  0
LINE
  8
0
 10
28.2065
 20
16.5268
 11
28.3439
 21
16.6558
  0
LINE
  8
0
 10
28.3439
 20
16.6558
 11
28.4962
 21
16.7665
  0
LINE
  8
0
 10
28.4962
 20
16.7665
 11
28.6613
 21
16.8572
  0
LINE
  8
0
 10
28.6613
 20
16.8572
 11
28.8365
 21
16.9266
  0
LINE
  8
0
 10
28.8365
 20
16.9266
 11
29.0189
 21
16.9734
  0
LINE
  8
0
 10
29.0189
 20
16.9734
 11
29.2058
 21
16.997
  0
LINE
  8
0
 10
29.2058
 20
16.997
 11
29.3942
 21
16.997
  0
LINE
  8
0
 10
29.3942
 20
16.997
 11
29.5811
 21
16.9734
  0
LINE
  8
0
 10
29.5811
 20
16.9734
 11
29.7635
 21
16.9266
  0
LINE
  8
0
 10
29.7635
 20
16.9266
 11
29.9387
 21
16.8572
  0
LINE
  8
0
 10
29.9387
 20
16.8572
 11
30.1037
 21
16.7665
  0
LINE
  8
0
 10
30.1037
 20
16.7665
 11
30.2561
 21
16.6558
  0
LINE
  8
0
 10
30.2561
 20
16.6558
 11
30.3934
 21
16.5268
  0
LINE
  8
0
 10
30.3934
 20
16.5268
 11
30.5135
 21
16.3817
  0
LINE
  8
0
 10
30.5135
 20
16.3817
 11
30.6145
 21
16.2226
  0
LINE
  8
0
 10
30.6145
 20
16.2226
 11
30.6947
 21
16.0522
  0
LINE
  8
0
 10
30.6947
 20
16.0522
 11
30.7529
 21
15.873
  0
LINE
  8
0
 10
30.7529
 20
15.873
 11
30.7882
 21
15.688
  0
LINE
  8
0
 10
30.7882
 20
15.688
 11
30.8
 21
15.5
  0
LINE
  8
0
 10
30.8
 20
15.5
 11
30.8
 21
6.39999
  0
LINE
  8
0
 10
30.8
 20
6.39999
 11
30.7882
 21
6.21199
  0
LINE
  8
0
 10
30.7882
 20
6.21199
 11
30.7529
 21
6.02696
  0
LINE
  8
0
 10
30.7529
 20
6.02696
 11
30.6947
 21
5.84781
  0
LINE
  8
0
 10
30.6947
 20
5.84781
 11
30.6145
 21
5.67737
  0
LINE
  8
0
 10
30.6145
 20
5.67737
 11
30.5135
 21
5.51831
  0
LINE
  8
0
 10
30.5135
 20
5.51831
 11
30.3934
 21
5.37317
  0
LINE
  8
0
 10
30.3934
 20
5.37317
 11
30.2561
 21
5.24422
  0
LINE
  8
0
 10
30.2561
 20
5.24422
 11
30.1037
 21
5.1335
  0
LINE
  8
0
 10
30.1037
 20
5.1335
 11
29.9387
 21
5.04276
  0
LINE
  8
0
 10
29.9387
 20
5.04276
 11
29.7635
 21
4.9734
  0
LINE
  8
0
 10
29.7635
 20
4.9734
 11
29.5811
 21
4.92656
  0
LINE
  8
0
 10
29.5811
 20
4.92656
 11
29.3942
 21
4.90295
  0
LINE
  8
0
 10
29.3942
 20
4.90295
 11
29.2058
 21
4.90295
  0
LINE
  8
0
 10
29.2058
 20
4.90295
 11
29.0189
 21
4.92656
  0
LINE
  8
0
 10
29.0189
 20
4.92656
 11
28.8365
 21
4.9734
  0
LINE
  8
0
 10
28.8365
 20
4.9734
 11
28.6613
 21
5.04276
  0
LINE
  8
0
 10
28.6613
 20
5.04276
 11
28.4962
 21
5.1335
  0
LINE
  8
0
 10
24.9003
 20
9.91489
 11
24.7024
 21
9.9399
  0
LINE
  8
0
 10
24.7024
 20
9.9399
 11
24.5092
 21
9.98949
  0
LINE
  8
0
 10
24.5092
 20
9.98949
 11
24.3238
 21
10.0629
  0
LINE
  8
0
 10
24.3238
 20
10.0629
 11
24.149
 21
10.159
  0
LINE
  8
0
 10
24.149
 20
10.159
 11
23.9876
 21
10.2762
  0
LINE
  8
0
 10
23.9876
 20
10.2762
 11
23.8422
 21
10.4128
  0
LINE
  8
0
 10
23.8422
 20
10.4128
 11
23.7151
 21
10.5665
  0
LINE
  8
0
 10
23.7151
 20
10.5665
 11
23.6082
 21
10.7348
  0
LINE
  8
0
 10
23.6082
 20
10.7348
 11
23.5233
 21
10.9153
  0
LINE
  8
0
 10
23.5233
 20
10.9153
 11
23.4617
 21
11.105
  0
LINE
  8
0
 10
23.4617
 20
11.105
 11
23.4243
 21
11.3009
  0
LINE
  8
0
 10
23.4243
 20
11.3009
 11
23.4118
 21
11.5
  0
LINE
  8
0
 10
23.4118
 20
11.5
 11
23.4243
 21
11.6991
  0
LINE
  8
0
 10
23.4243
 20
11.6991
 11
23.4617
 21
11.895
  0
LINE
  8
0
 10
23.4617
 20
11.895
 11
23.5233
 21
12.0847
  0
LINE
  8
0
 10
23.5233
 20
12.0847
 11
23.6082
 21
12.2651
  0
LINE
  8
0
 10
23.6082
 20
12.2651
 11
23.7151
 21
12.4335
  0
LINE
  8
0
 10
23.7151
 20
12.4335
 11
23.8422
 21
12.5872
  0
LINE
  8
0
 10
23.8422
 20
12.5872
 11
23.9876
 21
12.7238
  0
LINE
  8
0
 10
23.9876
 20
12.7238
 11
24.149
 21
12.841
  0
LINE
  8
0
 10
24.149
 20
12.841
 11
24.3238
 21
12.9371
  0
LINE
  8
0
 10
24.3238
 20
12.9371
 11
24.5092
 21
13.0105
  0
LINE
  8
0
 10
24.5092
 20
13.0105
 11
24.7024
 21
13.0601
  0
LINE
  8
0
 10
24.7024
 20
13.0601
 11
24.9003
 21
13.0851
  0
LINE
  8
0
 10
24.9003
 20
13.0851
 11
25.0997
 21
13.0851
  0
LINE
  8
0
 10
25.0997
 20
13.0851
 11
25.2976
 21
13.0601
  0
LINE
  8
0
 10
25.2976
 20
13.0601
 11
25.4908
 21
13.0105
  0
LINE
  8
0
 10
25.4908
 20
13.0105
 11
25.6762
 21
12.9371
  0
LINE
  8
0
 10
25.6762
 20
12.9371
 11
25.851
 21
12.841
  0
LINE
  8
0
 10
25.851
 20
12.841
 11
26.0124
 21
12.7238
  0
LINE
  8
0
 10
26.0124
 20
12.7238
 11
26.1578
 21
12.5872
  0
LINE
  8
0
 10
26.1578
 20
12.5872
 11
26.2849
 21
12.4335
  0
LINE
  8
0
 10
26.2849
 20
12.4335
 11
26.3918
 21
12.2651
  0
LINE
  8
0
 10
26.3918
 20
12.2651
 11
26.4767
 21
12.0847
  0
LINE
  8
0
 10
26.4767
 20
12.0847
 11
26.5383
 21
11.895
  0
LINE
  8
0
 10
26.5383
 20
11.895
 11
26.5757
 21
11.6991
  0
LINE
  8
0
 10
26.5757
 20
11.6991
 11
26.5882
 21
11.5
  0
LINE
  8
0
 10
26.5882
 20
11.5
 11
26.5757
 21
11.3009
  0
LINE
  8
0
 10
26.5757
 20
11.3009
 11
26.5383
 21
11.105
  0
LINE
  8
0
 10
26.5383
 20
11.105
 11
26.4767
 21
10.9153
  0
LINE
  8
0
 10
26.4767
 20
10.9153
 11
26.3918
 21
10.7348
  0
LINE
  8
0
 10
26.3918
 20
10.7348
 11
26.2849
 21
10.5665
  0
LINE
  8
0
 10
26.2849
 20
10.5665
 11
26.1578
 21
10.4128
  0
LINE
  8
0
 10
26.1578
 20
10.4128
 11
26.0124
 21
10.2762
  0
LINE
  8
0
 10
26.0124
 20
10.2762
 11
25.851
 21
10.159
  0
LINE
  8
0
 10
25.851
 20
10.159
 11
25.6762
 21
10.0629
  0
LINE
  8
0
 10
25.6762
 20
10.0629
 11
25.4908
 21
9.98949
  0
LINE
  8
0
 10
25.4908
 20
9.98949
 11
25.2976
 21
9.9399
  0
LINE
  8
0
 10
25.2976
 20
9.9399
 11
25.0997
 21
9.91489
  0
LINE
  8
0
 10
25.0997
 20
9.91489
 11
24.9003
 21
9.91489
  0
LINE
  8
0
 10
41.477
 20
32.2564
 11
41.4364
 21
32.0983
  0
LINE
  8
0
 10
41.4364
 20
32.0983
 11
41.3763
 21
31.9465
  0
LINE
  8
0
 10
41.3763
 20
31.9465
 11
41.2976
 21
31.8034
  0
LINE
  8
0
 10
41.2976
 20
31.8034
 11
41.2017
 21
31.6713
  0
LINE
  8
0
 10
41.2017
 20
31.6713
 11
41.0899
 21
31.5523
  0
LINE
  8
0
 10
41.0899
 20
31.5523
 11
40.9641
 21
31.4483
  0
LINE
  8
0
 10
40.9641
 20
31.4483
 11
40.8263
 21
31.3608
  0
LINE
  8
0
 10
40.8263
 20
31.3608
 11
40.6786
 21
31.2913
  0
LINE
  8
0
 10
40.6786
 20
31.2913
 11
40.5233
 21
31.2408
  0
LINE
  8
0
 10
40.5233
 20
31.2408
 11
40.3629
 21
31.2103
  0
LINE
  8
0
 10
40.3629
 20
31.2103
 11
40.2
 21
31.2
  0
LINE
  8
0
 10
40.2
 20
31.2
 11
40.0371
 21
31.2103
  0
LINE
  8
0
 10
40.0371
 20
31.2103
 11
39.8767
 21
31.2408
  0
LINE
  8
0
 10
39.8767
 20
31.2408
 11
39.7214
 21
31.2913
  0
LINE
  8
0
 10
39.7214
 20
31.2913
 11
39.5737
 21
31.3608
  0
LINE
  8
0
 10
39.5737
 20
31.3608
 11
39.4359
 21
31.4483
  0
LINE
  8
0
 10
39.4359
 20
31.4483
 11
39.3101
 21
31.5523
  0
LINE
  8
0
 10
39.3101
 20
31.5523
 11
39.1983
 21
31.6713
  0
LINE
  8
0
 10
39.1983
 20
31.6713
 11
39.1024
 21
31.8034
  0
LINE
  8
0
 10
39.1024
 20
31.8034
 11
39.0237
 21
31.9465
  0
LINE
  8
0
 10
39.0237
 20
31.9465
 11
38.9636
 21
32.0983
  0
LINE
  8
0
 10
38.9636
 20
32.0983
 11
38.923
 21
32.2564
  0
LINE
  8
0
 10
38.923
 20
32.2564
 11
38.9026
 21
32.4184
  0
LINE
  8
0
 10
38.9026
 20
32.4184
 11
38.9026
 21
32.5816
  0
LINE
  8
0
 10
38.9026
 20
32.5816
 11
38.923
 21
32.7436
  0
LINE
  8
0
 10
38.923
 20
32.7436
 11
38.9636
 21
32.9017
  0
LINE
  8
0
 10
38.9636
 20
32.9017
 11
39.0237
 21
33.0535
  0
LINE
  8
0
 10
39.0237
 20
33.0535
 11
39.1024
 21
33.1966
  0
LINE
  8
0
 10
39.1024
 20
33.1966
 11
39.1983
 21
33.3286
  0
LINE
  8
0
 10
39.1983
 20
33.3286
 11
39.3101
 21
33.4476
  0
LINE
  8
0
 10
39.3101
 20
33.4476
 11
39.4359
 21
33.5517
  0
LINE
  8
0
 10
39.4359
 20
33.5517
 11
39.5737
 21
33.6392
  0
LINE
  8
0
 10
39.5737
 20
33.6392
 11
39.7214
 21
33.7087
  0
LINE
  8
0
 10
39.7214
 20
33.7087
 11
39.8767
 21
33.7592
  0
LINE
  8
0
 10
39.8767
 20
33.7592
 11
40.0371
 21
33.7897
  0
LINE
  8
0
 10
40.0371
 20
33.7897
 11
40.2
 21
33.8
  0
LINE
  8
0
 10
40.2
 20
33.8
 11
40.3629
 21
33.7897
  0
LINE
  8
0
 10
40.3629
 20
33.7897
 11
40.5233
 21
33.7592
  0
LINE
  8
0
 10
40.5233
 20
33.7592
 11
40.6786
 21
33.7087
  0
LINE
  8
0
 10
40.6786
 20
33.7087
 11
40.8263
 21
33.6392
  0
LINE
  8
0
 10
40.8263
 20
33.6392
 11
40.9641
 21
33.5517
  0
LINE
  8
0
 10
40.9641
 20
33.5517
 11
41.0899
 21
33.4476
  0
LINE
  8
0
 10
41.0899
 20
33.4476
 11
41.2017
 21
33.3286
  0
LINE
  8
0
 10
41.2017
 20
33.3286
 11
41.2976
 21
33.1966
  0
LINE
  8
0
 10
41.2976
 20
33.1966
 11
41.3763
 21
33.0535
  0
LINE
  8
0
 10
41.3763
 20
33.0535
 11
41.4364
 21
32.9017
  0
LINE
  8
0
 10
41.4364
 20
32.9017
 11
41.477
 21
32.7436
  0
LINE
  8
0
 10
41.477
 20
32.7436
 11
41.4974
 21
32.5816
  0
LINE
  8
0
 10
41.4974
 20
32.5816
 11
41.4974
 21
32.4184
  0
LINE
  8
0
 10
41.4974
 20
32.4184
 11
41.477
 21
32.2564
  0
LINE
  8
0
 10
17.5942
 20
4.90295
 11
17.4058
 21
4.90295
  0
LINE
  8
0
 10
17.4058
 20
4.90295
 11
17.2189
 21
4.92656
  0
LINE
  8
0
 10
17.2189
 20
4.92656
 11
17.0365
 21
4.9734
  0
LINE
  8
0
 10
17.0365
 20
4.9734
 11
16.8613
 21
5.04276
  0
LINE
  8
0
 10
16.8613
 20
5.04276
 11
16.6963
 21
5.1335
  0
LINE
  8
0
 10
16.6963
 20
5.1335
 11
16.5439
 21
5.24422
  0
LINE
  8
0
 10
16.5439
 20
5.24422
 11
16.4065
 21
5.37317
  0
LINE
  8
0
 10
16.4065
 20
5.37317
 11
16.2865
 21
5.51831
  0
LINE
  8
0
 10
16.2865
 20
5.51831
 11
16.1855
 21
5.67737
  0
LINE
  8
0
 10
16.1855
 20
5.67737
 11
16.1053
 21
5.84781
  0
LINE
  8
0
 10
16.1053
 20
5.84781
 11
16.0471
 21
6.02696
  0
LINE
  8
0
 10
16.0471
 20
6.02696
 11
16.0118
 21
6.21199
  0
LINE
  8
0
 10
16.0118
 20
6.21199
 11
16
 21
6.39999
  0
LINE
  8
0
 10
16
 20
6.39999
 11
16
 21
15.5
  0
LINE
  8
0
 10
16
 20
15.5
 11
16.0118
 21
15.688
  0
LINE
  8
0
 10
16.0118
 20
15.688
 11
16.0471
 21
15.873
  0
LINE
  8
0
 10
16.0471
 20
15.873
 11
16.1053
 21
16.0522
  0
LINE
  8
0
 10
16.1053
 20
16.0522
 11
16.1855
 21
16.2226
  0
LINE
  8
0
 10
16.1855
 20
16.2226
 11
16.2865
 21
16.3817
  0
LINE
  8
0
 10
16.2865
 20
16.3817
 11
16.4065
 21
16.5268
  0
LINE
  8
0
 10
16.4065
 20
16.5268
 11
16.5439
 21
16.6558
  0
LINE
  8
0
 10
16.5439
 20
16.6558
 11
16.6963
 21
16.7665
  0
LINE
  8
0
 10
16.6963
 20
16.7665
 11
16.8613
 21
16.8572
  0
LINE
  8
0
 10
16.8613
 20
16.8572
 11
17.0365
 21
16.9266
  0
LINE
  8
0
 10
17.0365
 20
16.9266
 11
17.2189
 21
16.9734
  0
LINE
  8
0
 10
17.2189
 20
16.9734
 11
17.4058
 21
16.997
  0
LINE
  8
0
 10
17.4058
 20
16.997
 11
17.5942
 21
16.997
  0
LINE
  8
0
 10
17.5942
 20
16.997
 11
17.7811
 21
16.9734
  0
LINE
  8
0
 10
17.7811
 20
16.9734
 11
17.9635
 21
16.9266
  0
LINE
  8
0
 10
17.9635
 20
16.9266
 11
18.1387
 21
16.8572
  0
LINE
  8
0
 10
18.1387
 20
16.8572
 11
18.3037
 21
16.7665
  0
LINE
  8
0
 10
18.3037
 20
16.7665
 11
18.4561
 21
16.6558
  0
LINE
  8
0
 10
18.4561
 20
16.6558
 11
18.5934
 21
16.5268
  0
LINE
  8
0
 10
18.5934
 20
16.5268
 11
18.7135
 21
16.3817
  0
LINE
  8
0
 10
18.7135
 20
16.3817
 11
18.8145
 21
16.2226
  0
LINE
  8
0
 10
18.8145
 20
16.2226
 11
18.8947
 21
16.0522
  0
LINE
  8
0
 10
18.8947
 20
16.0522
 11
18.9529
 21
15.873
  0
LINE
  8
0
 10
18.9529
 20
15.873
 11
18.9882
 21
15.688
  0
LINE
  8
0
 10
18.9882
 20
15.688
 11
19
 21
15.5
  0
LINE
  8
0
 10
19
 20
15.5
 11
19
 21
6.39999
  0
LINE
  8
0
 10
19
 20
6.39999
 11
18.9882
 21
6.21199
  0
LINE
  8
0
 10
18.9882
 20
6.21199
 11
18.9529
 21
6.02696
  0
LINE
  8
0
 10
18.9529
 20
6.02696
 11
18.8947
 21
5.84781
  0
LINE
  8
0
 10
18.8947
 20
5.84781
 11
18.8145
 21
5.67737
  0
LINE
  8
0
 10
18.8145
 20
5.67737
 11
18.7135
 21
5.51831
  0
LINE
  8
0
 10
18.7135
 20
5.51831
 11
18.5934
 21
5.37317
  0
LINE
  8
0
 10
18.5934
 20
5.37317
 11
18.4561
 21
5.24422
  0
LINE
  8
0
 10
18.4561
 20
5.24422
 11
18.3037
 21
5.1335
  0
LINE
  8
0
 10
18.3037
 20
5.1335
 11
18.1387
 21
5.04276
  0
LINE
  8
0
 10
18.1387
 20
5.04276
 11
17.9635
 21
4.9734
  0
LINE
  8
0
 10
17.9635
 20
4.9734
 11
17.7811
 21
4.92656
  0
LINE
  8
0
 10
17.7811
 20
4.92656
 11
17.5942
 21
4.90295
  0
ENDSEC
  0
SECTION
  2
OBJECTS
  0
DICTIONARY
  0
ENDSEC
  0
EOF
